<?xml version="1.0" encoding="UTF-8" standalone="no"?>
<!-- Created with Inkscape (http://www.inkscape.org/) -->
<svg
   xmlns:svg="http://www.w3.org/2000/svg"
   xmlns="http://www.w3.org/2000/svg"
   version="1.0"
   width="1010"
   height="375"
   id="svg2"
   xml:space="preserve"><defs
     id="defs5" /><path
     d="M 2.54995,187.50075 C 2.54995,85.55475 227.50405,2.91075 504.99955,2.91075 C 782.49655,2.91075 1007.45,85.55475 1007.45,187.50075 C 1007.45,289.44525 782.49655,372.08925 504.99955,372.08925 C 227.50405,372.08925 2.54995,289.44525 2.54995,187.50075"
     id="weiss"
     style="fill:#ffffff;fill-opacity:1;fill-rule:nonzero;stroke:none" /><path
     d="M 505.7003,13.48185 C 236.2823,13.48185 17.85655,91.04087 17.85655,186.73185 C 17.85655,200.91585 22.7104,214.77358 31.8253,228.0756 C 84.23035,304.4751 278.02029,362.56136 507.5128,360.79435 C 522.8068,360.67735 549.10154,360.68883 562.85655,359.54435 C 554.14005,358.65635 548.3393,358.79134 537.0128,358.41935 C 346.5563,352.20035 159.17975,303.10533 117.5753,229.60685 C 117.2384,229.10135 116.9023,228.59608 116.5753,228.0756 C 109.13035,216.4941 105.16905,204.44783 105.16905,192.04435 C 105.16905,131.96485 195.7718,79.22234 331.8878,51.91935 C 423.2888,33.58335 492.8283,25.88809 586.2003,25.8881 C 643.1598,25.8881 697.66455,29.58609 747.91905,36.3256 C 676.55055,21.7936 593.86429,13.48184 505.7003,13.48185 z M 625.23155,36.60685 C 477.37205,36.60685 349.93505,72.94135 291.85655,125.29435 C 357.95705,97.14385 454.5468,81.69859 560.1378,79.5131 C 782.2578,74.9171 932.38777,142.5801 932.3878,220.3881 C 932.3878,222.9666 932.22079,225.52258 931.8878,228.0756 C 928.1858,256.5276 904.07505,282.72484 865.48155,304.23185 C 920.31255,284.48135 960.88954,258.09058 979.98155,228.0756 C 987.90605,215.6166 992.13781,202.53983 992.1378,189.04435 C 992.1378,104.86285 827.86054,36.60686 625.23155,36.60685 z"
     id="rot"
     style="fill:#da262d;fill-opacity:1;fill-rule:evenodd;stroke:none" /><path
     d="M 286.5753,125.54435 C 248.37213,126.08287 224.37174,134.82356 212.4503,141.29435 C 198.3833,148.65635 179.16605,163.20883 176.16905,189.91935 C 174.99455,200.40735 176.85755,208.90185 180.29405,215.79435 L 221.2003,215.8256 L 180.29405,215.8256 C 185.43005,226.1561 194.08455,232.85984 201.35655,237.16935 C 215.28105,245.55885 231.7933,249.14262 251.5753,251.2006 C 263.1088,252.3946 273.3978,252.57558 277.5753,252.5756 C 319.6353,252.5756 344.42354,242.14113 357.16905,234.2631 C 363.22005,230.6691 367.65355,226.53736 369.23155,225.16935 C 372.10555,222.63135 375.32806,219.59835 378.35655,215.79435 C 383.29905,209.57985 387.7253,201.30738 389.2628,189.73185 C 392.4743,165.58935 382.5588,152.97707 372.0753,145.1381 C 371.1513,144.4436 369.98155,143.72882 369.23155,143.35685 C 348.10255,132.95435 319.82806,137.70485 301.66905,143.91935 C 289.79355,147.97985 277.3668,154.61759 267.4503,162.4506 C 272.6028,161.4501 278.82655,160.7631 286.16905,160.7631 C 288.52855,160.7631 290.8618,160.82886 293.2003,160.98185 C 298.1278,161.21135 313.00681,162.28836 322.5753,169.60685 C 327.0693,173.11385 331.66105,178.60337 330.23155,189.35685 C 329.12455,197.66385 324.7003,202.1606 321.3253,205.1381 C 320.6248,205.7456 318.6413,207.57036 315.9503,209.16935 C 312.3188,211.41635 306.48605,214.12485 297.85655,215.79435 C 292.99505,216.73335 287.2628,217.3256 280.5128,217.3256 C 278.6543,217.3256 274.05505,217.26735 268.91905,216.73185 C 266.54455,216.48735 264.27555,216.17235 262.10655,215.79435 L 261.9503,215.79435 C 256.1384,214.77763 251.0627,213.18409 246.5753,210.48185 C 241.5053,207.47435 234.9138,201.86284 235.2003,191.54435 C 235.0728,187.14185 233.7008,171.47963 259.5128,148.7006 C 273.8918,136.0121 288.50605,127.83186 291.60655,125.54435 L 290.29405,125.54435 C 289.03203,125.54435 287.80766,125.52698 286.5753,125.54435 z M 448.54405,131.0756 L 446.7628,131.10685 C 429.0913,132.02035 412.6283,146.51958 409.5128,164.2631 L 400.54405,215.79435 L 394.66905,249.6381 L 454.8878,249.6381 L 460.91905,222.41935 L 538.0128,222.4506 C 545.0598,222.4506 550.60578,219.86385 554.2628,215.79435 C 556.4423,213.35835 557.9608,210.40084 558.7003,207.10685 C 560.6458,198.47735 562.70031,189.85687 562.7003,189.85685 L 467.04405,189.8881 L 468.9503,177.35685 C 470.3483,173.15385 472.85555,170.57234 477.48155,169.85685 L 555.54405,169.79435 C 568.27905,169.79435 575.77379,163.76411 578.1378,153.1381 C 580.5018,142.4821 583.3878,131.07559 583.3878,131.0756 L 448.54405,131.0756 z M 635.98155,131.0756 C 617.65005,131.0756 600.16781,145.93158 596.9503,164.2631 L 587.60655,215.79435 L 581.48155,249.6381 L 724.85655,249.6381 C 743.18805,249.63811 775.19155,249.01535 780.41905,216.85685 C 780.48056,216.49985 780.5333,216.14235 780.5753,215.79435 C 783.7463,190.73835 751.32532,187.98183 751.3253,187.98185 C 751.3253,187.98185 779.54205,188.42609 783.35655,163.7631 C 787.19205,138.9321 765.34455,131.07561 742.85655,131.0756 L 635.98155,131.0756 z M 664.5753,159.10685 L 720.4503,159.16935 C 725.20979,159.16933 731.9043,162.17635 730.3878,168.79435 L 730.16905,170.23185 C 728.13806,179.20483 721.0833,179.3881 716.3253,179.3881 L 650.41905,179.3881 L 652.23155,170.41935 C 653.59508,163.10233 656.6823,159.10685 664.5753,159.10685 z M 646.91905,200.54435 L 714.35655,200.54435 C 719.11605,200.54435 725.81053,203.54687 724.29405,210.16935 L 724.10655,211.60685 C 723.72405,213.29585 723.14029,214.67685 722.4503,215.79435 C 719.47879,220.63485 714.1283,220.7631 710.2628,220.7631 L 642.79405,220.7631 L 643.79405,215.79435 L 646.91905,200.54435 z"
     id="ofb"
     style="fill:#292526;fill-opacity:1;fill-rule:evenodd;stroke:none" /><path
     d="M 788.13355,323.79525 C 787.87255,321.24675 791.68705,322.25175 793.41805,322.18125 C 795.93505,322.07475 813.76705,316.93275 820.65505,313.64325 L 820.52155,311.39175 C 820.52155,309.15525 823.30405,308.37975 824.27905,310.52925 C 824.39155,310.77375 825.01105,312.50475 825.01105,312.50475 C 830.55055,311.69775 838.62355,310.62675 844.63405,309.01125 L 846.14005,308.37975 C 847.25755,307.78275 850.05655,305.67225 851.30755,306.13275 C 851.70055,306.27975 852.01105,306.71475 852.32905,307.12875 C 840.25255,317.59125 824.68855,324.39675 807.36805,325.60725 C 800.78155,326.06625 794.33305,325.68825 788.13355,324.57075 C 788.09755,324.21825 788.14255,323.89125 788.13355,323.79525 z M 784.01755,292.72275 C 782.30755,293.13675 781.56205,291.06375 782.94505,289.92975 C 784.78855,288.42375 786.41305,286.70775 788.37805,285.35025 C 788.85805,278.60475 789.75655,270.28725 791.10055,260.22225 C 789.66505,258.37425 788.44555,256.39275 787.05505,254.51325 C 786.07555,253.17675 787.67905,251.69025 789.01705,252.55275 C 791.66155,254.25375 791.79955,253.91175 794.62855,255.88725 C 803.03305,253.58925 808.25155,251.94525 817.07455,249.29475 C 818.01505,247.42125 819.48505,245.00625 820.37455,242.98425 C 821.31805,240.81825 823.73905,242.39625 823.64155,243.56625 C 823.47355,245.58375 823.07005,248.76975 822.76405,250.94025 C 829.36105,258.93075 834.84955,266.33475 838.03705,271.41525 C 840.59005,271.57875 843.05605,271.82925 845.59255,272.15025 C 846.52855,272.27325 847.77355,275.35725 845.27155,275.64375 C 842.73355,275.93475 841.24255,276.36825 838.79155,276.42975 L 838.23055,276.61875 C 834.20155,282.99675 827.31355,292.60575 822.36955,297.02775 C 822.36955,299.03025 822.86605,301.39875 822.76405,303.08475 C 822.64555,304.89675 819.84355,305.36625 819.38905,303.71175 C 818.96905,302.18475 817.83655,299.46825 817.38205,297.95175 C 809.88055,297.07425 799.45855,294.06675 791.95255,290.52825 C 788.87455,291.19125 787.16755,291.96225 784.01755,292.72275 z M 729.38605,267.26325 C 731.49505,271.08825 733.39555,273.63675 735.18205,274.24875 L 740.20705,273.00825 C 740.96305,270.56775 742.00855,267.62175 742.46305,266.62125 C 743.18305,265.03725 745.36405,265.88475 745.24105,267.60075 C 745.08805,269.78175 744.39955,271.85925 744.41455,274.08075 C 749.63305,281.63775 759.09955,290.60475 767.00455,294.36225 L 767.51905,294.33225 L 769.19905,294.24525 C 770.46055,294.16875 774.02905,293.36625 774.71905,294.93525 C 775.63405,297.00825 770.70055,298.08075 769.48555,298.48875 C 768.88255,303.42075 771.04255,311.54025 772.62055,314.80875 C 773.39755,315.52275 774.20905,316.86525 774.78055,317.08575 L 775.79155,317.85675 C 777.22105,318.48975 777.61405,320.38875 775.90405,321.29325 C 752.03755,312.72375 733.59355,292.67325 728.07955,267.51975 C 728.49355,267.01875 729.05005,266.99775 729.38605,267.26325 z M 864.07255,291.77925 C 863.03005,290.71725 864.64405,287.83725 864.93055,286.29525 C 864.42505,283.16925 862.47955,276.80775 859.94755,273.54975 C 857.88355,274.03575 855.86155,274.60725 854.03305,274.86825 C 852.19555,275.12775 851.42905,272.49225 853.09405,271.72125 C 854.37655,271.12425 856.47955,270.30675 858.39505,269.37825 C 863.51605,262.76025 867.08005,249.60075 867.77005,239.70075 C 867.19705,237.59175 866.09005,236.11575 864.61855,233.94075 C 863.55205,232.36875 865.30855,230.56575 866.65105,231.90975 C 868.21405,233.47125 869.63305,234.68175 870.87355,235.89675 L 871.72705,235.37625 C 872.39005,234.98775 872.48305,234.99825 873.32455,234.68625 L 872.45155,228.86625 C 872.46655,227.93175 873.06505,227.26125 873.84055,227.20125 C 875.98555,233.25675 877.35355,239.69025 877.82455,246.39975 C 879.00805,263.34225 874.27555,279.36075 865.33855,292.50975 C 864.84355,292.41675 864.34855,292.06425 864.07255,291.77925 z M 809.50705,181.74075 C 808.46605,179.91225 803.95255,180.07575 804.00355,177.58425 C 826.88455,178.02375 847.54405,188.50575 861.18205,204.94725 C 860.57005,205.28925 860.03305,205.47975 859.66105,205.45875 C 858.78205,205.41825 855.52555,202.63575 854.78455,203.45775 C 854.72905,206.72475 855.00355,207.72075 855.18805,212.45475 C 856.37755,214.44525 859.25305,216.71775 858.32755,218.40225 C 857.04205,220.74675 854.68705,217.04475 852.76255,216.06975 C 848.06455,217.41675 838.17355,220.27125 830.11105,223.03425 C 829.39555,224.16225 827.05705,228.18675 827.05705,228.18675 C 825.81655,230.07525 823.73905,229.16175 823.93255,227.50275 C 824.16205,225.55575 824.31655,223.32075 824.52055,221.59875 C 817.56505,213.73125 811.07005,207.34725 805.16755,204.34575 C 803.52355,204.50325 799.79005,204.84075 799.52005,204.83625 C 797.98255,204.81075 797.36605,202.64475 798.93205,202.00125 C 799.25905,201.86925 801.66955,200.63775 803.02855,199.83675 C 805.15705,193.37775 806.35255,191.02875 807.08305,188.70075 C 807.83305,186.29475 808.52755,184.64625 809.50705,181.74075"
     id="ball"
     style="fill:#292526;fill-opacity:1;fill-rule:evenodd;stroke:none" /></svg>