<?xml version="1.0" encoding="UTF-8" standalone="no"?>
<!-- Created with Inkscape (http://www.inkscape.org/) -->

<svg
   xmlns:dc="http://purl.org/dc/elements/1.1/"
   xmlns:cc="http://creativecommons.org/ns#"
   xmlns:rdf="http://www.w3.org/1999/02/22-rdf-syntax-ns#"
   xmlns:svg="http://www.w3.org/2000/svg"
   xmlns="http://www.w3.org/2000/svg"
   xmlns:sodipodi="http://sodipodi.sourceforge.net/DTD/sodipodi-0.dtd"
   xmlns:inkscape="http://www.inkscape.org/namespaces/inkscape"
   id="svg2"
   version="1.1"
   inkscape:version="0.48.2 r9819"
   width="40.18681"
   height="46.051125"
   xml:space="preserve"
   sodipodi:docname="AstraSportHatchBrochure.pdf"><metadata
     id="metadata8"><rdf:RDF><cc:Work
         rdf:about=""><dc:format>image/svg+xml</dc:format><dc:type
           rdf:resource="http://purl.org/dc/dcmitype/StillImage" /><dc:title></dc:title></cc:Work></rdf:RDF></metadata><defs
     id="defs6"><clipPath
       clipPathUnits="userSpaceOnUse"
       id="clipPath18"><path
         d="M 0,476.22 0,0 l 700.157,0 0,382.677 -350.086,0 L 0,373.153 l 0,9.524 0,93.543 z"
         id="path20"
         inkscape:connector-curvature="0" /></clipPath><clipPath
       clipPathUnits="userSpaceOnUse"
       id="clipPath30"><path
         d="m 45.496,27.18 90.983,0 0,50.822 -90.983,0 0,-50.822 z"
         id="path32"
         inkscape:connector-curvature="0" /></clipPath><clipPath
       clipPathUnits="userSpaceOnUse"
       id="clipPath686"><path
         d="m 45.496,27.18 141.103,0 0,50.822 -141.103,0 0,-50.822 z"
         id="path688"
         inkscape:connector-curvature="0" /></clipPath><clipPath
       clipPathUnits="userSpaceOnUse"
       id="clipPath1388"><path
         d="m 0,476.22 0,-93.543 169.92,0 145.208,0 0,93.543 -315.128,0 z"
         id="path1390"
         inkscape:connector-curvature="0" /></clipPath><clipPath
       clipPathUnits="userSpaceOnUse"
       id="clipPath1400"><path
         d="m 314.744,476.22 0,-93.543 35.333,0 280.387,0 0,93.543 -315.72,0 z"
         id="path1402"
         inkscape:connector-curvature="0" /></clipPath><clipPath
       clipPathUnits="userSpaceOnUse"
       id="clipPath1412"><path
         d="m 630.081,382.677 70.076,0 0,93.542 -70.076,0 0,-93.542 z"
         id="path1414"
         inkscape:connector-curvature="0" /></clipPath><clipPath
       clipPathUnits="userSpaceOnUse"
       id="clipPath1424"><path
         d="m 350.071,382.677 -350.071,0 169.92,0 180.157,0 -0.006,0 z"
         id="path1426"
         inkscape:connector-curvature="0" /></clipPath><clipPath
       clipPathUnits="userSpaceOnUse"
       id="clipPath1434"><path
         d="m -0.00660706,-0.13829 1.02782706,0 0,0.267715 -1.02782706,0 0,-0.267715 z"
         id="path1436"
         inkscape:connector-curvature="0" /></clipPath><linearGradient
       x1="0"
       y1="0"
       x2="1"
       y2="0"
       gradientUnits="userSpaceOnUse"
       gradientTransform="matrix(691.36237,83.664047,83.664047,-691.36237,3.9661865,388.19006)"
       spreadMethod="pad"
       id="linearGradient1438"><stop
         style="stop-opacity:1;stop-color:#916367"
         offset="0"
         id="stop1440" /><stop
         style="stop-opacity:1;stop-color:#b26f6a"
         offset="0.353928"
         id="stop1442" /><stop
         style="stop-opacity:1;stop-color:#b26f6a"
         offset="0.353928"
         id="stop1444" /><stop
         style="stop-opacity:1;stop-color:#916367"
         offset="1"
         id="stop1446" /></linearGradient><clipPath
       clipPathUnits="userSpaceOnUse"
       id="clipPath1462"><path
         d="m 593.445,428.034 c 0,-16.466 13.361,-29.75 30.011,-29.75 l 0,0 c 16.505,0 29.776,13.074 29.776,29.75 l 0,0 c 0,16.532 -13.519,29.711 -29.986,29.711 l 0,0 c -16.845,0 -29.801,-13.428 -29.801,-29.711"
         id="path1464"
         inkscape:connector-curvature="0" /></clipPath></defs><sodipodi:namedview
     pagecolor="#ffffff"
     bordercolor="#666666"
     borderopacity="1"
     objecttolerance="10"
     gridtolerance="10"
     guidetolerance="10"
     inkscape:pageopacity="0"
     inkscape:pageshadow="2"
     inkscape:window-width="1024"
     inkscape:window-height="712"
     id="namedview4"
     showgrid="false"
     fit-margin-top="0"
     fit-margin-left="0"
     fit-margin-right="0"
     fit-margin-bottom="0"
     inkscape:zoom="2.8284271"
     inkscape:cx="26.21504"
     inkscape:cy="-3.6503697"
     inkscape:window-x="-4"
     inkscape:window-y="-4"
     inkscape:window-maximized="1"
     inkscape:current-layer="g10" /><g
     id="g10"
     inkscape:groupmode="layer"
     inkscape:label="AstraSportHatchBrochure"
     transform="matrix(1.25,0,0,-1.25,-244.93152,75.623254)"><g
       id="g5132"><g
         transform="translate(228.0518,28.232703)"
         id="g1180"><path
           inkscape:connector-curvature="0"
           id="path1182"
           style="fill:#e11a22;fill-opacity:1;fill-rule:nonzero;stroke:none"
           d="m 0,0 c -0.412,0.861 -0.95,1.909 -1.291,2.819 0,-0.646 -0.821,-1.362 -1.789,-1.769 -4.173,-1.751 -8.988,-2.576 -12.952,-2.576 -3.963,0 -8.779,0.825 -12.951,2.576 -0.969,0.407 -1.79,1.123 -1.79,1.769 -0.34,-0.91 -0.879,-1.958 -1.291,-2.819 -0.27,-0.515 0.767,-1.304 2.458,-1.98 4.719,-1.886 9.928,-2.595 13.574,-2.595 3.647,0 8.855,0.709 13.574,2.595 C -0.766,-1.304 0.271,-0.515 0,0" /></g><g
         transform="translate(222.1829,32.862204)"
         id="g1184"><path
           inkscape:connector-curvature="0"
           id="path1186"
           style="fill:#e11a22;fill-opacity:1;fill-rule:nonzero;stroke:none"
           d="M 0,0 C 0.386,0.771 4.226,4.446 4.687,11.198 5.148,7.108 3.346,2.658 1.805,0.265 3.046,0.889 4.687,3.526 4.943,4.804 4.848,2.71 3.748,0.4 2.582,-0.799 2.28,-0.871 -0.583,-1.163 0,0" /></g><g
         transform="translate(202.23919,32.563895)"
         id="g1188"><path
           inkscape:connector-curvature="0"
           id="path1190"
           style="fill:#00813c;fill-opacity:1;fill-rule:nonzero;stroke:none"
           d="m 0,0 c 0.122,-0.402 -0.141,-0.703 -0.432,-0.794 -1.267,-0.396 -3.849,0.286 -4.09,-0.403 -0.243,-0.699 1.09,-1.737 2.966,-2.259 C -1.201,-1.732 0.949,-0.949 0,0" /></g><g
         transform="translate(201.8697,32.862204)"
         id="g1192"><path
           inkscape:connector-curvature="0"
           id="path1194"
           style="fill:#e11a22;fill-opacity:1;fill-rule:nonzero;stroke:none"
           d="M 0,0 C -0.386,0.771 -4.226,4.446 -4.687,11.198 -5.148,7.108 -3.347,2.658 -1.806,0.265 -3.046,0.889 -4.687,3.526 -4.943,4.804 -4.848,2.71 -3.748,0.4 -2.582,-0.799 -2.28,-0.871 0.582,-1.163 0,0" /></g><g
         transform="translate(221.81331,32.563895)"
         id="g1196"><path
           inkscape:connector-curvature="0"
           id="path1198"
           style="fill:#00813c;fill-opacity:1;fill-rule:nonzero;stroke:none"
           d="M 0,0 C -0.122,-0.402 0.141,-0.703 0.432,-0.794 1.699,-1.19 4.281,-0.508 4.522,-1.197 4.765,-1.896 3.432,-2.934 1.556,-3.456 1.201,-1.732 -0.949,-0.949 0,0" /></g><g
         transform="translate(223.9129,58.358603)"
         id="g1200"><path
           inkscape:connector-curvature="0"
           id="path1202"
           style="fill:#005d28;fill-opacity:1;fill-rule:nonzero;stroke:none"
           d="m 0,0 c 6.403,-16.948 -6.942,-26.533 -11.89,-29.939 l -0.002,-0.006 -0.002,0.006 C -16.842,-26.533 -30.189,-16.948 -23.785,0 -29.274,-10.342 -26.749,-23.745 -11.892,-31.201 2.965,-23.745 5.489,-10.342 0,0" /></g><g
         transform="translate(223.9129,58.358603)"
         id="g1204"><path
           inkscape:connector-curvature="0"
           id="path1206"
           style="fill:#00813c;fill-opacity:1;fill-rule:nonzero;stroke:none"
           d="m 0,0 c 0,0 -4.34,2.139 -11.889,2.14 l -0.001,0 -0.003,0 -0.003,0 C -19.445,2.139 -23.785,0 -23.785,0 -32.089,-19.569 -14.832,-29.072 -11.893,-30.493 -8.953,-29.072 8.304,-19.569 0,0" /></g><g
         transform="translate(199.1718,49.279196)"
         id="g1208"><path
           inkscape:connector-curvature="0"
           id="path1210"
           style="fill:#fcd205;fill-opacity:1;fill-rule:nonzero;stroke:none"
           d="M 0,0 -0.086,0.148 0,0.296 0.169,0.296 0.255,0.148 0.169,0 0,0 z m 0.51,0.148 c 0.15,0.133 0.17,0.344 0.17,0.344 0,0 -0.193,0.087 -0.383,0.025 -0.04,0.195 -0.213,0.319 -0.213,0.319 0,0 -0.172,-0.124 -0.212,-0.32 -0.19,0.063 -0.383,-0.024 -0.383,-0.024 0,0 0.021,-0.211 0.17,-0.344 -0.149,-0.133 -0.17,-0.343 -0.17,-0.343 0,0 0.193,-0.089 0.383,-0.025 0.04,-0.196 0.212,-0.319 0.212,-0.319 0,0 0.173,0.123 0.214,0.319 0.189,-0.064 0.382,0.025 0.382,0.025 0,0 -0.02,0.21 -0.17,0.343" /></g><g
         transform="translate(201.2695,57.387701)"
         id="g1212"><path
           inkscape:connector-curvature="0"
           id="path1214"
           style="fill:#fcd205;fill-opacity:1;fill-rule:nonzero;stroke:none"
           d="M 0,0 -0.086,0.148 0,0.296 0.17,0.296 0.255,0.148 0.169,0 0,0 z m 0.51,0.148 c 0.15,0.133 0.17,0.344 0.17,0.344 0,0 -0.193,0.088 -0.382,0.025 -0.041,0.196 -0.213,0.319 -0.213,0.319 0,0 -0.172,-0.123 -0.213,-0.32 -0.19,0.064 -0.382,-0.024 -0.382,-0.024 0,0 0.02,-0.211 0.169,-0.344 -0.149,-0.132 -0.169,-0.343 -0.169,-0.343 0,0 0.192,-0.088 0.382,-0.025 0.04,-0.196 0.213,-0.319 0.213,-0.319 0,0 0.172,0.123 0.213,0.319 0.189,-0.063 0.382,0.025 0.382,0.025 0,0 -0.02,0.21 -0.17,0.343" /></g><g
         transform="translate(200.45981,40.993597)"
         id="g1216"><path
           inkscape:connector-curvature="0"
           id="path1218"
           style="fill:#fcd205;fill-opacity:1;fill-rule:nonzero;stroke:none"
           d="M 0,0 -0.086,0.148 0,0.296 0.169,0.296 0.254,0.148 0.169,0 0,0 z m 0.51,0.148 c 0.149,0.133 0.17,0.344 0.17,0.344 0,0 -0.193,0.088 -0.383,0.025 -0.04,0.196 -0.212,0.319 -0.212,0.319 0,0 -0.173,-0.123 -0.213,-0.319 -0.189,0.063 -0.383,-0.025 -0.383,-0.025 0,0 0.021,-0.211 0.17,-0.344 -0.149,-0.133 -0.17,-0.343 -0.17,-0.343 0,0 0.193,-0.088 0.383,-0.025 0.04,-0.196 0.213,-0.319 0.213,-0.319 0,0 0.172,0.123 0.212,0.319 0.19,-0.063 0.383,0.025 0.383,0.025 0,0 -0.021,0.21 -0.17,0.343" /></g><g
         transform="translate(205.1568,33.926199)"
         id="g1220"><path
           inkscape:connector-curvature="0"
           id="path1222"
           style="fill:#fcd205;fill-opacity:1;fill-rule:nonzero;stroke:none"
           d="M 0,0 -0.086,0.148 0,0.295 0.17,0.295 0.255,0.148 0.169,0 0,0 z m 0.51,0.148 c 0.15,0.133 0.17,0.344 0.17,0.344 0,0 -0.193,0.087 -0.383,0.025 -0.04,0.195 -0.212,0.319 -0.212,0.319 0,0 -0.173,-0.124 -0.213,-0.319 -0.19,0.062 -0.383,-0.025 -0.383,-0.025 0,0 0.021,-0.211 0.17,-0.344 -0.149,-0.133 -0.17,-0.344 -0.17,-0.344 0,0 0.193,-0.087 0.383,-0.025 0.04,-0.195 0.213,-0.318 0.213,-0.318 0,0 0.172,0.123 0.213,0.318 0.189,-0.062 0.382,0.025 0.382,0.025 0,0 -0.02,0.211 -0.17,0.344" /></g><g
         transform="translate(211.93361,28.857901)"
         id="g1224"><path
           inkscape:connector-curvature="0"
           id="path1226"
           style="fill:#fcd205;fill-opacity:1;fill-rule:nonzero;stroke:none"
           d="M 0,0 -0.086,0.148 0,0.296 0.17,0.296 0.255,0.148 0.169,0 0,0 z m 0.51,0.148 c 0.15,0.133 0.17,0.344 0.17,0.344 0,0 -0.193,0.088 -0.383,0.025 -0.04,0.195 -0.213,0.319 -0.213,0.319 0,0 -0.171,-0.124 -0.212,-0.319 -0.19,0.063 -0.383,-0.025 -0.383,-0.025 0,0 0.021,-0.211 0.17,-0.344 -0.149,-0.133 -0.17,-0.344 -0.17,-0.344 0,0 0.193,-0.087 0.383,-0.024 0.04,-0.196 0.212,-0.319 0.212,-0.319 0,0 0.173,0.123 0.213,0.319 0.19,-0.063 0.383,0.024 0.383,0.024 0,0 -0.02,0.211 -0.17,0.344" /></g><g
         transform="translate(208.3537,59.045996)"
         id="g1228"><path
           inkscape:connector-curvature="0"
           id="path1230"
           style="fill:#fcd205;fill-opacity:1;fill-rule:nonzero;stroke:none"
           d="M 0,0 -0.086,0.148 0,0.296 0.17,0.296 0.255,0.148 0.169,0 0,0 z m 0.51,0.148 c 0.149,0.133 0.17,0.344 0.17,0.344 0,0 -0.192,0.088 -0.382,0.025 -0.041,0.195 -0.214,0.319 -0.214,0.319 0,0 -0.171,-0.124 -0.212,-0.319 -0.19,0.063 -0.383,-0.025 -0.383,-0.025 0,0 0.021,-0.211 0.17,-0.344 -0.149,-0.133 -0.17,-0.343 -0.17,-0.343 0,0 0.193,-0.088 0.383,-0.025 0.04,-0.196 0.212,-0.319 0.212,-0.319 0,0 0.174,0.123 0.214,0.319 0.19,-0.063 0.382,0.025 0.382,0.025 0,0 -0.021,0.21 -0.17,0.343" /></g><g
         transform="translate(224.694,49.275)"
         id="g1232"><path
           inkscape:connector-curvature="0"
           id="path1234"
           style="fill:#fcd205;fill-opacity:1;fill-rule:nonzero;stroke:none"
           d="M 0,0 -0.086,0.148 0,0.296 0.169,0.296 0.255,0.148 0.169,0 0,0 z m -0.511,-0.196 c 0,0 0.193,-0.087 0.383,-0.024 0.04,-0.196 0.213,-0.319 0.213,-0.319 0,0 0.172,0.123 0.212,0.319 0.19,-0.063 0.383,0.024 0.383,0.024 0,0 -0.021,0.211 -0.17,0.344 0.149,0.133 0.17,0.344 0.17,0.344 0,0 -0.193,0.088 -0.383,0.024 -0.04,0.196 -0.212,0.32 -0.212,0.32 0,0 -0.173,-0.124 -0.213,-0.319 -0.19,0.063 -0.383,-0.025 -0.383,-0.025 0,0 0.021,-0.211 0.17,-0.344 -0.149,-0.133 -0.17,-0.344 -0.17,-0.344" /></g><g
         transform="translate(222.5962,57.383704)"
         id="g1236"><path
           inkscape:connector-curvature="0"
           id="path1238"
           style="fill:#fcd205;fill-opacity:1;fill-rule:nonzero;stroke:none"
           d="M 0,0 -0.085,0.148 0,0.296 0.17,0.296 0.255,0.148 0.169,0 0,0 z m -0.511,-0.196 c 0,0 0.193,-0.087 0.383,-0.024 0.04,-0.196 0.213,-0.319 0.213,-0.319 0,0 0.172,0.123 0.212,0.319 0.19,-0.063 0.383,0.024 0.383,0.024 0,0 -0.021,0.211 -0.17,0.344 0.149,0.133 0.17,0.344 0.17,0.344 0,0 -0.193,0.088 -0.383,0.024 -0.04,0.196 -0.212,0.32 -0.212,0.32 0,0 -0.173,-0.124 -0.213,-0.319 -0.19,0.063 -0.383,-0.025 -0.383,-0.025 0,0 0.021,-0.211 0.17,-0.344 -0.149,-0.133 -0.17,-0.344 -0.17,-0.344" /></g><g
         transform="translate(223.406,40.989493)"
         id="g1240"><path
           inkscape:connector-curvature="0"
           id="path1242"
           style="fill:#fcd205;fill-opacity:1;fill-rule:nonzero;stroke:none"
           d="M 0,0 -0.085,0.148 0,0.296 0.17,0.296 0.255,0.148 0.169,0 0,0 z m -0.511,-0.195 c 0,0 0.193,-0.088 0.383,-0.025 0.04,-0.196 0.213,-0.319 0.213,-0.319 0,0 0.172,0.123 0.212,0.319 0.19,-0.063 0.383,0.025 0.383,0.025 0,0 -0.021,0.211 -0.17,0.343 0.149,0.133 0.17,0.344 0.17,0.344 0,0 -0.193,0.088 -0.383,0.025 -0.04,0.196 -0.212,0.319 -0.212,0.319 0,0 -0.173,-0.123 -0.213,-0.319 -0.19,0.063 -0.383,-0.025 -0.383,-0.025 0,0 0.021,-0.211 0.17,-0.344 -0.149,-0.133 -0.17,-0.343 -0.17,-0.343" /></g><g
         transform="translate(218.7088,33.921698)"
         id="g1244"><path
           inkscape:connector-curvature="0"
           id="path1246"
           style="fill:#fcd205;fill-opacity:1;fill-rule:nonzero;stroke:none"
           d="M 0,0 -0.085,0.149 0,0.296 0.17,0.296 0.255,0.149 0.169,0 0,0 z m -0.511,-0.196 c 0,0 0.193,-0.087 0.383,-0.024 0.04,-0.196 0.213,-0.319 0.213,-0.319 0,0 0.172,0.123 0.212,0.319 0.19,-0.063 0.383,0.024 0.383,0.024 0,0 -0.021,0.212 -0.17,0.345 0.149,0.132 0.17,0.343 0.17,0.343 0,0 -0.193,0.088 -0.383,0.025 -0.04,0.196 -0.212,0.319 -0.212,0.319 0,0 -0.173,-0.123 -0.213,-0.319 -0.19,0.063 -0.383,-0.025 -0.383,-0.025 0,0 0.02,-0.211 0.17,-0.343 -0.15,-0.134 -0.17,-0.345 -0.17,-0.345" /></g><g
         transform="translate(215.5119,59.041998)"
         id="g1248"><path
           inkscape:connector-curvature="0"
           id="path1250"
           style="fill:#fcd205;fill-opacity:1;fill-rule:nonzero;stroke:none"
           d="M 0,0 -0.085,0.148 0,0.296 0.17,0.296 0.255,0.148 0.169,0 0,0 z m -0.511,-0.196 c 0,0 0.193,-0.087 0.383,-0.024 0.04,-0.196 0.213,-0.319 0.213,-0.319 0,0 0.172,0.123 0.212,0.319 0.19,-0.063 0.383,0.024 0.383,0.024 0,0 -0.021,0.211 -0.17,0.344 0.149,0.133 0.17,0.344 0.17,0.344 0,0 -0.193,0.088 -0.383,0.025 -0.04,0.196 -0.212,0.319 -0.212,0.319 0,0 -0.173,-0.123 -0.213,-0.319 -0.19,0.063 -0.383,-0.025 -0.383,-0.025 0,0 0.02,-0.211 0.17,-0.344 -0.15,-0.133 -0.17,-0.344 -0.17,-0.344" /></g><g
         transform="translate(212.02549,30.003607)"
         id="g1252"><path
           inkscape:connector-curvature="0"
           id="path1254"
           style="fill:#ffffff;fill-opacity:1;fill-rule:nonzero;stroke:none"
           d="m 0,0 c -1.552,0.922 -4.717,3.061 -7.308,6.462 -4.429,5.811 -5.23,12.613 -2.381,20.226 1.45,0.574 4.801,1.638 9.687,1.638 4.885,0 8.237,-1.064 9.687,-1.638 C 12.546,19.043 11.726,12.213 7.246,6.386 4.654,3.016 1.532,0.908 0,0" /></g><g
         transform="translate(211.67621,54.946402)"
         id="g1256"><path
           inkscape:connector-curvature="0"
           id="path1258"
           style="fill:#e11a22;fill-opacity:1;fill-rule:nonzero;stroke:none"
           d="m 0,0 c -0.087,-0.328 -0.559,-0.305 -0.542,-0.056 -0.135,0.023 -0.32,-0.081 -0.523,-0.134 0.231,0.153 0.336,0.443 0.6,0.465 0.368,0.012 0.552,-0.133 0.408,0.107 C 0.207,0.327 0.442,0.197 0,0" /></g><g
         transform="translate(213.5886,53.386206)"
         id="g1260"><path
           inkscape:connector-curvature="0"
           id="path1262"
           style="fill:#e11a22;fill-opacity:1;fill-rule:nonzero;stroke:none"
           d="M 0,0 C 2.255,0.457 2.838,1.889 2.838,1.889 L 2.325,2.407 c 0,0 1.443,0.429 2.173,1.292 C 4.579,2.72 3.786,1.234 3.786,1.234 L 3.28,1.536 C 3.28,1.536 2.155,-0.089 0,0" /></g><g
         transform="translate(207.8619,54.579596)"
         id="g1264"><path
           inkscape:connector-curvature="0"
           id="path1266"
           style="fill:#e11a22;fill-opacity:1;fill-rule:nonzero;stroke:none"
           d="m 0,0 c -0.058,-0.129 -0.334,-0.201 -0.334,-0.201 0,0 0.246,-0.268 1.278,-0.275 0.673,0.339 1.412,0.303 1.276,0.494 C 2.084,0.209 1.839,0.397 1.247,0.548 1.794,0.594 2.071,0.505 2.369,0.463 3.065,0.797 3.874,1.335 4.364,0.826 5.042,0.983 5.378,1.296 5.923,1.183 6.339,1.432 7.151,1.712 7.228,0.784 6.96,1.012 6.502,0.771 6.183,0.724 6.085,0.71 5.838,0.668 5.935,1.11 5.85,1.103 5.754,0.98 5.762,0.885 5.477,1.038 5.386,1.027 5.365,0.899 5.353,0.824 5.547,0.642 5.649,0.626 5.783,0.605 5.798,0.717 5.86,0.665 5.965,0.621 5.88,0.155 5.624,0.048 4.871,0.086 4.731,-0.379 4.426,-0.362 4.482,-0.08 3.924,-0.243 3.534,-0.477 2.945,-0.832 2.882,-1.334 3.079,-1.661 3.692,-1.473 4,-1.735 4.454,-1.585 4.433,-1.721 4.427,-1.883 5.256,-1.853 4.362,-1.593 5.07,-1.27 5.369,-1.245 4.495,-1.134 4.12,-1.614 4.133,-1.265 c 0.028,0.767 0.923,1.094 0.808,0.734 0.27,0.022 0.493,0.286 0.682,0.326 0.075,-0.113 0.106,-0.282 0.125,-0.51 0.302,0.283 0.155,0.591 0.349,0.607 0.147,0.012 0.127,-0.358 0.085,-0.628 0.229,0.217 0.32,0.514 0.301,0.745 0.15,0.295 0.07,0.453 0.07,0.453 0,0 0.664,0.42 0.809,-0.053 C 7.557,1.101 7.295,2.042 5.859,1.407 5.505,1.532 5.059,1.282 4.558,1.161 4.045,1.477 3.452,1.199 2.716,0.865 2.249,1.141 1.41,1.037 0.917,1.53 0.782,1.175 0.855,0.801 1.041,0.643 0.21,0.789 -0.808,1.375 -0.808,1.375 -0.808,1.375 -0.575,-0.013 0,0" /></g><g
         transform="translate(210.4158,48.821295)"
         id="g1268"><path
           inkscape:connector-curvature="0"
           id="path1270"
           style="fill:#e11a22;fill-opacity:1;fill-rule:nonzero;stroke:none"
           d="M 0,0 C 0.858,0 2.216,0.078 2.666,0.528 3.164,1.026 2.066,1.205 3.413,1.57 4.759,1.935 7.945,2.396 10,5.435 9.301,3.48 6.894,1.849 3.726,1.221 5.424,1.036 7.474,1.088 10.584,1.887 8.934,1.079 5.873,0.629 3.736,0.812 4.539,0.258 7.407,-1.014 9.386,-1.299 7.407,-1.475 3.907,0.108 3.584,0.432 4.165,-1.313 6.316,-2.581 7.096,-2.962 5.244,-2.52 3.949,-1.259 3.216,0.135 3.097,-0.52 2.902,-1.556 2.902,-3.282 2.602,-1.87 2.74,-0.547 2.903,0.169 1.686,-0.437 0,0 0,0 m 7.312,-6.532 c -0.449,0.449 -0.11,0.97 0.313,0.949 L 7.716,-5.596 C 8.21,-5.69 8.43,-6.087 8.464,-6.53 7.996,-6.758 7.542,-6.762 7.312,-6.532 m 1.713,2.363 c 0.19,-0.041 0.627,-0.05 1.073,0.034 C 10.037,-4.606 9.804,-5.092 9.438,-5.66 9.213,-5.197 8.543,-4.418 7.374,-4.813 6.624,-5.065 6.061,-5.903 6.4,-6.738 6.365,-6.291 6.542,-5.973 6.807,-5.784 6.76,-6.1 6.889,-6.448 7.062,-6.621 L 7.069,-6.693 C 7.014,-6.79 6.932,-6.892 6.68,-6.973 6.978,-6.994 7.11,-6.912 7.208,-6.8 l 0.058,0.025 C 7.35,-6.793 7.448,-6.824 7.547,-6.876 L 7.585,-6.94 C 7.589,-7.006 7.569,-7.127 7.569,-7.225 l 0.135,0.285 0.033,0.045 c 0.159,0 0.463,0.048 0.731,0.188 L 8.451,-6.904 C 8.033,-7.256 7.448,-7.493 6.638,-7.105 7.073,-7.575 7.78,-7.668 8.247,-7.52 8.167,-7.662 8.067,-7.78 7.954,-7.857 7.193,-8.374 6.186,-8.199 5.638,-7.377 5.164,-6.667 5.191,-5.074 4.419,-3.925 3.95,-3.711 3.056,-3.867 2.713,-4.347 2.647,-4.048 2.277,-3.022 0.968,-2.393 2.243,-2.603 2.606,-3.35 2.86,-3.678 c 1.471,0.647 2.422,-0.057 2.622,-0.465 0.723,1.16 2.359,0.979 2.359,0.979 0,0 0.134,1.495 2.82,1.723 -0.357,0.845 -0.071,2.843 0.908,4.222 C 10.98,3.658 10.284,5.331 10.284,7.004 9.052,3.921 6.05,2.751 6.05,2.751 c 0,0 0.379,0.588 0.562,1.867 C 4.117,1.301 0.053,2.274 0.449,1.451 0.718,0.742 -0.701,0.463 -0.896,0.486 -1.095,1.099 -0.661,2.18 0.159,3 0.159,2.767 0.176,2.468 0.314,2.33 0.486,3.119 1.132,3.433 1.449,3.459 1.912,3.497 2.394,3.259 2.11,2.792 2.658,2.837 2.665,3.185 2.827,3.199 2.947,3.209 2.99,2.988 2.978,2.756 3.235,2.962 3.338,3.1 3.338,3.519 3.417,3.638 3.576,3.9 3.357,4.191 3.348,3.945 3.307,3.807 3.198,3.711 L 2.971,3.707 C 2.999,3.812 3.034,3.972 2.966,4.127 2.801,3.694 2.49,3.458 2.466,3.751 2.03,3.654 0.899,4.059 -0.236,2.924 c 0,0.348 0.018,0.728 -0.136,0.778 -0.314,0.104 -1.031,-0.489 -1.205,-0.821 0.314,1.013 0.999,1.448 1.54,1.826 -0.548,-0.178 -1.355,-0.627 -1.626,-1.212 0.066,0.27 -0.224,0.655 -0.385,0.785 0.359,0.358 0.97,0.627 1.812,0.713 -0.813,0.114 -1.441,-0.1 -2.085,-0.571 0,0.314 0.433,0.699 0.433,0.699 C -2.782,4.775 -2.918,3.996 -2.881,3.98 -2.104,4.383 -2.04,3.65 -2.041,3.401 -2.178,3.265 -2.099,3.36 -2.263,3.219 -2.377,3.443 -2.79,3.623 -3.191,3.468 c 0.287,0 0.566,-0.32 0.645,-0.628 -0.11,-0.13 -0.25,-0.34 -0.34,-0.486 -0.1,0.271 -0.517,0.385 -0.716,0.284 C -3.418,2.539 -3.157,2.301 -3.098,1.962 -3.266,1.572 -3.456,1.135 -3.456,0.656 L -3.83,0.903 c 0,0 -0.283,0.696 -0.594,1.173 -0.247,0.378 -0.715,1.141 -0.715,1.644 0,0.502 0.258,1.571 0.654,1.769 0.396,0.198 0.525,0.305 0.632,0.64 0.106,0.334 -0.263,0.453 -0.263,0.453 0,0 0.138,0.746 -0.841,0.684 C -4.482,7.109 -4.556,6.652 -4.699,6.51 -5.062,6.224 -4.795,5.912 -5.223,5.484 -5.46,5.247 -5.55,4.877 -5.55,4.877 c 0,0 -0.164,0.498 0.224,1.115 0.149,0.236 0.064,0.753 -0.228,0.753 -0.079,0.25 -0.555,0.583 -0.924,0.38 0.407,0 0.4,-0.568 0.4,-0.568 0,0 -0.278,-0.041 -0.202,-0.437 0.076,-0.396 0.182,-0.438 0.182,-0.756 0,-0.685 0.03,-0.898 0.03,-0.898 0,0 -0.572,0.864 -0.62,1.257 -0.075,0.608 -0.693,0.275 -0.693,0.275 0,0 -0.611,0.279 -0.913,-0.402 0.232,0.184 0.585,0.169 0.672,-0.082 C -7.871,4.892 -6.965,4.874 -6.469,3.832 -6.161,3.184 -6.163,2.823 -6.318,2.563 -6.474,2.302 -6.784,2.141 -6.818,1.892 -6.932,1.777 -7.232,1.81 -7.422,2 c 0,-0.456 0.397,-0.631 0.607,-0.681 0.487,-0.278 0.803,0.083 0.803,0.316 0,0.233 0.081,0.368 0.31,0.669 0.57,-1.05 0.698,-2.675 0.698,-2.675 0,0 -0.082,-0.476 -0.227,-0.826 0.35,0 0.67,0.396 0.67,0.396 l 1.233,-0.731 c 0,0 -0.44,0.383 -0.107,1.005 -0.305,0.419 0.073,0.919 0.152,0.997 -0.05,0.321 0.121,0.678 0.511,0.925 0.068,0.254 0.236,0.544 0.769,0.802 0.095,0.095 0.332,0.321 0.774,0.471 0.678,0.394 0.805,0.017 0.648,-0.14 C -0.771,2.315 -0.902,2.094 -1.18,1.816 -1.208,1.788 -1.264,1.724 -1.394,1.773 -1.548,1.828 -1.708,1.9 -1.812,1.978 -1.74,1.816 -1.58,1.676 -1.491,1.615 l 0.05,-0.171 C -1.541,1.267 -1.626,1.096 -1.697,0.932 -1.715,0.892 -1.749,0.815 -1.879,0.851 -2.052,0.907 -2.297,1.005 -2.49,1.156 -2.349,0.894 -2.16,0.736 -1.937,0.628 L -1.872,0.47 C -1.906,0.36 -1.936,0.254 -1.959,0.152 -1.967,0.114 -1.995,0.043 -2.104,0.043 c -0.22,0.009 -0.553,0.063 -0.911,0.261 0.191,-0.281 0.607,-0.453 0.882,-0.46 0.1,0 0.109,-0.071 0.106,-0.107 -0.019,-0.178 -0.02,-0.341 -0.011,-0.489 0.003,-0.043 -0.005,-0.143 -0.118,-0.143 -0.228,-0.019 -0.583,0.004 -0.96,0.231 0.33,-0.421 0.719,-0.445 1.026,-0.476 0.114,0 0.124,-0.072 0.133,-0.102 0.107,-0.381 0.275,-0.563 0.285,-0.514 0.119,0.566 0.476,1.208 1.214,1.508 -0.603,-0.603 -0.895,-1.431 -0.961,-2.107 -0.685,0.181 -1.446,-0.219 -2.83,0.195 1.557,-0.124 2.291,0.233 2.291,0.233 0,0 -0.846,-0.119 -1.269,0.304 0.026,-0.154 0.088,-0.254 0.131,-0.304 -0.38,-0.064 -1.249,-0.135 -1.579,0.03 -0.548,0.274 -0.985,0.184 -1.263,1.012 -0.136,0.405 -0.109,1.143 -0.45,1.226 -0.091,0.091 -0.465,0.744 -1.209,0 0.409,0.167 0.587,0.024 0.693,-0.175 -0.121,-0.121 -0.191,-0.442 0.014,-0.648 0.206,-0.205 0.312,-0.57 0.609,-0.867 -0.456,0.091 -0.971,0.771 -1.523,0.456 -0.25,0.055 -1.023,-0.3 -0.836,-1.036 0.091,0.534 0.859,0.451 0.859,0.451 0,0 -0.059,-0.19 0.211,-0.396 0.34,-0.26 1.066,0.006 1.608,-0.449 -0.205,-0.206 -1.554,0.32 -1.824,-0.562 -0.387,-0.117 -0.771,-0.496 -0.657,-1.113 0.251,0.397 0.453,0.451 0.767,0.528 0.121,-0.34 0.511,-0.246 0.74,-0.139 0.338,0.155 0.872,0.795 1.709,0.665 0.714,-0.11 0.917,-0.639 0.986,-1.099 0.09,-0.61 0.411,-0.754 0.411,-0.754 0,0 0.013,-0.326 -0.357,-0.574 0.662,0 0.894,0.429 0.894,0.643 0.561,0.813 -0.71,1.348 -0.596,1.509 0,0 1.069,-0.322 2.205,-0.322 0.522,-0.147 0.765,-0.297 1.096,-0.628 0.144,0.144 0.172,0.525 0.172,0.525 l 0.36,-0.4 -0.004,-0.13 c -0.083,-0.084 -0.366,-0.292 -0.786,-0.384 0.544,-0.005 0.836,0.129 0.987,0.247 l 0.101,0.016 C 0.371,-4.377 0.559,-4.496 0.779,-4.626 L 0.786,-4.732 C 0.635,-4.853 0.43,-4.993 0.199,-5.082 0.432,-5.05 0.817,-5 0.994,-4.874 l 0.187,0.017 c 0.234,-0.132 0.477,-0.266 0.69,-0.392 L 1.865,-5.365 C 1.788,-5.443 1.555,-5.583 1.357,-5.618 1.547,-5.646 1.911,-5.55 2.05,-5.444 l 0.125,0.008 c 0.12,-0.078 0.217,-0.15 0.277,-0.21 0.292,0.108 0.723,0.19 1.03,0.124 -1.136,-0.337 -1.395,-0.587 -1.705,-0.896 -0.295,0 -0.703,0.163 -0.91,0.646 -0.463,0.08 -0.861,0.257 -1.119,0.579 -0.297,0 -0.858,-0.083 -1.219,0.62 -0.324,0.087 -0.774,0.356 -1.038,0.987 -0.072,-0.194 0.136,-0.957 0.871,-1.214 0.136,-0.233 0.48,-0.654 1.196,-0.654 l 0.092,-0.124 c -0.124,-0.044 -0.359,-0.003 -0.649,-0.109 -0.82,-0.301 -1.267,-1.548 -0.655,-2.01 0.151,-0.327 0.518,-0.944 0.518,-0.944 0,0 -0.495,-0.261 -1.05,-0.319 -0.546,-0.058 -0.914,-0.137 -1.096,0.456 -0.14,0.457 -0.107,0.709 -0.074,0.95 0.035,0.264 0.025,0.403 -0.109,0.664 -0.194,0.38 -0.532,0.228 -0.532,0.228 0,0 -0.335,0.529 -1.157,-0.106 0.341,0.031 0.573,0.047 0.73,-0.259 -0.239,-0.579 0.305,-0.548 0.305,-0.731 0,-0.182 0.184,-0.694 0.276,-0.986 -0.185,0.113 -0.692,0.896 -1.083,1.169 -0.327,0.228 -0.579,0.015 -0.579,0.015 0,0 -0.574,0.252 -0.898,-0.38 0.54,0.129 0.751,0.02 0.729,-0.042 -0.12,-0.343 0.063,-0.719 0.398,-0.719 0.335,0 0.327,0.129 0.533,-0.077 0.205,-0.205 0.557,-0.559 0.761,-0.67 -0.574,-0.046 -1.202,0.525 -1.519,-0.153 -0.231,-0.108 -0.781,-0.628 -0.318,-1.334 0,0.514 0.371,0.789 0.569,0.789 0.053,-0.053 0.116,-0.19 0.501,-0.138 0.457,0.06 0.896,0.498 1.672,0.197 0.541,-0.209 0.537,-0.658 0.596,-1.208 0.039,-0.366 0.215,-0.314 0.42,-0.314 0.206,0 0.354,-0.301 0.057,-0.7 0.469,0 0.594,0.776 0.594,0.776 0,0 0.168,0.122 0,0.487 -0.167,0.365 -0.502,-0.179 -0.583,0.697 -0.024,0.26 1.492,0.732 1.492,0.732 0,0 0.141,-0.287 0.781,-0.637 -0.224,0.354 -0.125,0.602 -0.125,0.602 0,0 0.285,-0.359 0.779,-0.229 -0.746,0.449 -1.207,1.957 -0.03,1.878 0.064,0.353 0.286,0.883 0.585,1.068 -0.152,-0.463 -0.377,-1.218 -0.342,-1.629 0.094,-1.065 0.719,-1.321 1.065,-1.431 0.396,-0.396 0.899,-0.761 0.899,-0.761 0,0 -0.054,-0.069 -0.297,-0.617 -0.244,-0.548 -0.34,-1.065 -1.347,-1.332 -1.035,-0.274 -1.193,0.189 -1.624,0.189 -0.431,0 -0.575,-0.333 -0.4,-0.509 -0.161,-0.254 -0.503,-0.593 -0.168,-1.141 0,0.335 0.457,0.639 0.457,0.639 0,0 0.289,-0.076 0.487,0.122 0.578,-0.091 1.218,0.061 1.218,0.061 0,0 -0.572,-0.425 -0.835,-0.487 -0.263,-0.062 -0.39,-0.328 -0.261,-0.457 -0.67,-0.853 -0.046,-1.324 0.091,-1.462 -0.154,0.597 0.213,0.939 0.396,1.005 0.559,-0.27 1.005,0.952 1.583,1.34 0,-0.606 -0.395,-1.201 -0.432,-1.628 -0.037,-0.427 0.244,-0.393 0.244,-0.393 0,0 0.125,-0.662 0.746,-0.904 -0.22,0.508 -0.102,0.942 -0.102,0.942 0,0 0.257,-0.04 0.278,0.461 0.022,0.502 -0.415,0.822 0.118,1.583 0.944,1.065 1.443,0.478 1.738,0.478 0.295,0 0.302,0.283 0.302,0.283 0,0 0.579,0.259 0.731,-0.274 0.183,0.7 -0.503,0.913 -0.776,0.913 -0.381,0.381 -0.506,-0.218 -1.023,-0.218 -0.518,0 -0.028,1.131 -0.028,1.131 0,0 0.442,-0.094 0.851,0.084 -0.39,0.089 -0.668,0.495 -0.668,0.495 0,0 0.554,-0.236 0.822,-0.137 -0.244,0.206 -1.058,0.826 -1.218,1.477 -0.228,0.928 0.672,1.156 0.672,1.156 0,0 0.081,-0.137 0.231,-0.33 L 4.876,-8.401 C 4.779,-8.474 4.642,-8.549 4.453,-8.595 4.638,-8.64 4.823,-8.598 4.965,-8.542 5.061,-8.505 5.109,-8.536 5.128,-8.557 5.234,-8.67 5.357,-8.789 5.495,-8.902 L 5.482,-9.005 c -0.094,-0.043 -0.248,-0.106 -0.41,-0.106 0.219,-0.053 0.425,-0.018 0.552,0.004 0.112,0.032 0.151,10e-4 0.17,-0.011 0.169,-0.106 0.271,-0.169 0.471,-0.234 -0.599,-0.169 -1.183,0.037 -1.425,0.201 -0.279,0.071 -0.488,0.149 -0.615,0.355 0,-0.227 0.26,-0.424 0.486,-0.48 0.124,-0.186 0.456,-0.303 0.833,-0.303 1.873,-0.821 4.432,0.438 4.113,3.037 0.336,0.464 0.673,1.171 0.943,2.27 0.356,-0.355 0.697,-0.536 0.697,-0.536 0,0 0.059,1.789 -0.475,2.757 -0.49,-0.965 -1.344,-1.772 -1.797,-2.118" /></g><g
         transform="translate(209.27279,51.381598)"
         id="g1272"><path
           inkscape:connector-curvature="0"
           id="path1274"
           style="fill:#e11a22;fill-opacity:1;fill-rule:nonzero;stroke:none"
           d="m 0,0 c 0,-0.178 0.321,-0.478 0.321,-0.478 l 0.091,0.205 c 0,0 -0.23,0.091 -0.412,0.273" /></g><g
         transform="translate(198.04899,27.875998)"
         id="g1276"><path
           inkscape:connector-curvature="0"
           id="path1278"
           style="fill:#ffffff;fill-opacity:1;fill-rule:nonzero;stroke:none"
           d="M 0,0 0.081,0.167 0.479,-0.027 0.239,-0.518 0.173,-0.536 0.072,-0.54 l -0.132,0.022 -0.16,0.061 -0.208,0.155 -0.102,0.197 -0.004,0.228 0.082,0.244 0.142,0.211 0.186,0.133 0.223,0.039 C 0.18,0.747 0.265,0.722 0.356,0.678 L 0.477,0.6 0.568,0.506 0.619,0.413 0.618,0.338 0.565,0.287 0.478,0.253 0.451,0.312 0.412,0.376 0.353,0.438 0.269,0.492 0.106,0.532 -0.029,0.491 -0.138,0.393 -0.222,0.258 -0.28,0.1 -0.291,-0.051 -0.239,-0.186 -0.108,-0.292 -0.033,-0.32 0.023,-0.329 0.072,-0.325 0.186,-0.091 0,0 z" /></g><g
         transform="translate(199.4712,27.430899)"
         id="g1280"><path
           inkscape:connector-curvature="0"
           id="path1282"
           style="fill:#ffffff;fill-opacity:1;fill-rule:nonzero;stroke:none"
           d="M 0,0 0.046,0.159 0.05,0.305 0.001,0.425 -0.113,0.506 -0.257,0.524 -0.377,0.47 -0.474,0.361 -0.548,0.211 -0.594,0.05 -0.599,-0.1 l 0.05,-0.125 0.116,-0.084 0.142,-0.016 0.119,0.059 0.097,0.115 L 0,0 m 0.24,-0.091 -0.118,-0.22 -0.166,-0.157 -0.212,-0.067 c -0.077,-0.006 -0.163,0.008 -0.256,0.044 -0.091,0.035 -0.163,0.082 -0.215,0.139 l -0.107,0.191 -0.015,0.226 0.06,0.24 0.118,0.214 0.167,0.151 0.213,0.064 c 0.078,0.007 0.162,-0.007 0.252,-0.042 L 0.174,0.557 0.282,0.371 0.3,0.151 0.24,-0.091" /></g><g
         transform="translate(200.5399,27.300207)"
         id="g1284"><path
           inkscape:connector-curvature="0"
           id="path1286"
           style="fill:#ffffff;fill-opacity:1;fill-rule:nonzero;stroke:none"
           d="m 0,0 -0.004,0.172 -0.14,0.097 -0.054,0.016 -0.039,0.01 -0.137,-0.397 0.081,-0.028 0.179,-0.005 L 0,0 m 0.255,-0.063 -0.061,-0.12 -0.083,-0.08 -0.094,-0.045 -0.095,-0.015 0.12,-0.572 -0.076,0.002 -0.071,0.016 -0.097,0.064 -0.049,0.116 -0.081,0.401 -0.095,0.033 -0.149,-0.434 -0.237,0.082 0.394,1.146 0.162,-0.042 0.148,-0.046 C 0.057,0.386 0.169,0.316 0.227,0.233 0.285,0.151 0.295,0.052 0.255,-0.063" /></g><g
         transform="translate(201.5054,27.1509)"
         id="g1288"><path
           inkscape:connector-curvature="0"
           id="path1290"
           style="fill:#ffffff;fill-opacity:1;fill-rule:nonzero;stroke:none"
           d="M 0,0 -0.31,-0.447 0.001,-0.543 0,0 z m 0.006,-1.046 -0.012,0.316 -0.402,0.122 -0.183,-0.256 -0.237,0.073 0.755,1.024 L -0.01,0.232 0.073,0.215 0.115,0.199 0.157,0.17 0.189,0.125 0.204,0.057 0.252,-1.122 0.006,-1.046 z" /></g><g
         transform="translate(202.25959,26.384802)"
         id="g1292"><path
           inkscape:connector-curvature="0"
           id="path1294"
           style="fill:#ffffff;fill-opacity:1;fill-rule:nonzero;stroke:none"
           d="m 0,0 -0.023,-0.117 0.008,-0.095 0.051,-0.074 0.106,-0.05 0.186,0.024 0.1,0.181 0.198,0.73 L 0.658,0.594 0.686,0.59 0.712,0.585 0.762,0.566 0.807,0.532 0.834,0.481 0.83,0.406 0.675,-0.166 0.654,-0.236 0.629,-0.307 0.556,-0.436 0.441,-0.528 0.282,-0.567 0.08,-0.542 l -0.186,0.077 -0.112,0.106 -0.05,0.136 0.004,0.166 0.012,0.067 0.018,0.07 0.189,0.701 L -0.014,0.776 0.014,0.772 0.04,0.767 0.091,0.748 0.136,0.714 0.164,0.662 0.159,0.588 0,0 z" /></g><g
         transform="translate(203.74839,26.211905)"
         id="g1296"><path
           inkscape:connector-curvature="0"
           id="path1298"
           style="fill:#ffffff;fill-opacity:1;fill-rule:nonzero;stroke:none"
           d="m 0,0 -0.058,-0.086 -0.105,-0.015 -0.085,0.06 -0.014,0.104 0.059,0.084 L -0.1,0.161 -0.015,0.102 0,0 z" /></g><g
         transform="translate(205.02121,25.313101)"
         id="g1300"><path
           inkscape:connector-curvature="0"
           id="path1302"
           style="fill:#ffffff;fill-opacity:1;fill-rule:nonzero;stroke:none"
           d="m 0,0 -0.041,-0.019 -0.072,-0.019 -0.104,-0.007 -0.135,0.016 c -0.096,0.02 -0.176,0.053 -0.24,0.098 l -0.146,0.166 -0.06,0.217 c -0.005,0.08 0.001,0.165 0.02,0.255 0.019,0.09 0.048,0.171 0.087,0.243 l 0.146,0.177 0.201,0.094 c 0.076,0.017 0.161,0.016 0.254,-0.004 L 0.033,1.178 0.125,1.128 0.187,1.079 0.222,1.039 0.243,0.999 0.246,0.954 0.204,0.888 0.132,0.835 0.092,0.888 0.041,0.94 -0.028,0.984 -0.119,1.015 -0.279,1.011 -0.398,0.936 -0.479,0.812 -0.527,0.662 -0.545,0.498 -0.518,0.352 -0.435,0.236 -0.285,0.167 -0.19,0.16 -0.11,0.175 -0.046,0.201 0.001,0.226 0.019,0.191 0.038,0.148 0.051,0.104 0.053,0.067 0.036,0.03 0,0" /></g><g
         transform="translate(205.6688,25.856299)"
         id="g1304"><path
           inkscape:connector-curvature="0"
           id="path1306"
           style="fill:#ffffff;fill-opacity:1;fill-rule:nonzero;stroke:none"
           d="M 0,0 0.453,-0.08 0.54,0.407 0.57,0.405 0.6,0.404 0.63,0.4 0.679,0.386 0.727,0.356 0.757,0.308 0.76,0.233 0.571,-0.835 0.327,-0.791 0.419,-0.272 -0.034,-0.192 -0.126,-0.711 -0.37,-0.668 -0.157,0.53 -0.125,0.528 -0.097,0.527 -0.07,0.524 -0.017,0.509 0.03,0.48 0.061,0.431 0.063,0.356 0,0 z" /></g><g
         transform="translate(207.64331,24.808096)"
         id="g1308"><path
           inkscape:connector-curvature="0"
           id="path1310"
           style="fill:#ffffff;fill-opacity:1;fill-rule:nonzero;stroke:none"
           d="m 0,0 -0.204,0.028 -0.116,0.659 -0.284,-0.603 -0.201,0.028 -0.236,1.255 0.064,0.008 0.071,-0.002 0.099,-0.045 0.043,-0.095 0.127,-0.803 0.255,0.541 -0.04,0.318 0.066,0.003 0.055,-0.003 0.1,-0.045 0.039,-0.096 0.108,-0.779 0.306,0.707 0.067,0.088 0.11,0.023 L 0.5,1.171 0.554,1.15 0,0 z" /></g><g
         transform="translate(208.67131,25.706107)"
         id="g1312"><path
           inkscape:connector-curvature="0"
           id="path1314"
           style="fill:#ffffff;fill-opacity:1;fill-rule:nonzero;stroke:none"
           d="M 0,0 -0.218,-0.499 0.106,-0.532 0,0 z m 0.207,-1.026 -0.072,0.308 -0.418,0.043 -0.13,-0.287 -0.246,0.026 0.542,1.151 0.062,0.011 0.085,0 0.045,-0.009 0.046,-0.02 0.04,-0.038 0.028,-0.063 0.275,-1.148 -0.257,0.026 z" /></g><g
         transform="translate(209.96859,25.443198)"
         id="g1316"><path
           inkscape:connector-curvature="0"
           id="path1318"
           style="fill:#ffffff;fill-opacity:1;fill-rule:nonzero;stroke:none"
           d="m 0,0 -0.048,0.165 -0.161,0.058 -0.056,0.002 -0.04,-0.001 -0.03,-0.419 0.086,-0.006 0.174,0.041 L 0,0 M 0.263,0.005 0.235,-0.127 0.176,-0.226 0.096,-0.293 0.008,-0.332 0.272,-0.854 0.198,-0.872 0.125,-0.875 l -0.111,0.037 -0.077,0.1 -0.182,0.367 -0.099,0.007 -0.033,-0.457 -0.25,0.017 0.085,1.209 0.168,0.001 L -0.22,0.4 C -0.044,0.388 0.082,0.349 0.16,0.284 0.237,0.219 0.272,0.126 0.263,0.005" /></g><g
         transform="translate(210.94,25.547903)"
         id="g1320"><path
           inkscape:connector-curvature="0"
           id="path1322"
           style="fill:#ffffff;fill-opacity:1;fill-rule:nonzero;stroke:none"
           d="M 0,0 -0.184,-0.512 0.142,-0.524 0,0 z m 0.276,-1.009 -0.093,0.302 -0.42,0.014 -0.111,-0.294 -0.247,0.008 0.464,1.185 0.062,0.016 L 0.015,0.227 0.06,0.222 0.108,0.205 0.151,0.169 0.182,0.108 0.534,-1.018 0.276,-1.009 z" /></g><g
         transform="translate(212.3238,24.722998)"
         id="g1324"><path
           inkscape:connector-curvature="0"
           id="path1326"
           style="fill:#ffffff;fill-opacity:1;fill-rule:nonzero;stroke:none"
           d="M 0,0 0.073,-0.011 0.119,-0.04 0.144,-0.081 0.151,-0.129 0.15,-0.162 0.148,-0.192 -0.64,-0.193 l -0.002,1.219 0.759,0 0.005,-0.033 0,-0.034 -0.032,-0.095 -0.122,-0.033 -0.358,0 0,-0.3 0.386,0.001 0,-0.195 L -0.39,0.336 -0.389,0 0,0 z" /></g><g
         transform="translate(213.24949,25.232001)"
         id="g1328"><path
           inkscape:connector-curvature="0"
           id="path1330"
           style="fill:#ffffff;fill-opacity:1;fill-rule:nonzero;stroke:none"
           d="M 0,0 -0.033,-0.099 -0.13,-0.141 -0.228,-0.106 -0.269,-0.01 -0.234,0.087 -0.139,0.128 -0.042,0.094 0,0 z" /></g><g
         transform="translate(214.7167,24.710593)"
         id="g1332"><path
           inkscape:connector-curvature="0"
           id="path1334"
           style="fill:#ffffff;fill-opacity:1;fill-rule:nonzero;stroke:none"
           d="m 0,0 -0.035,-0.03 -0.063,-0.037 -0.098,-0.035 -0.135,-0.021 c -0.097,-0.007 -0.184,0.003 -0.257,0.03 L -0.774,0.026 -0.89,0.218 c -0.027,0.075 -0.044,0.159 -0.051,0.251 -0.006,0.092 0,0.178 0.018,0.258 l 0.092,0.209 0.168,0.146 c 0.069,0.037 0.151,0.059 0.246,0.065 L -0.288,1.144 -0.186,1.12 -0.113,1.089 -0.068,1.06 -0.037,1.028 -0.023,0.985 -0.045,0.91 -0.1,0.839 -0.152,0.88 -0.216,0.916 -0.294,0.94 -0.39,0.945 -0.543,0.897 -0.637,0.793 -0.681,0.652 -0.687,0.494 -0.659,0.332 -0.594,0.198 -0.482,0.108 -0.32,0.084 -0.227,0.103 -0.154,0.139 -0.099,0.181 -0.06,0.218 -0.033,0.189 -0.003,0.153 0.021,0.115 0.033,0.079 0.027,0.038 0,0" /></g><g
         transform="translate(215.49859,25.185904)"
         id="g1336"><path
           inkscape:connector-curvature="0"
           id="path1338"
           style="fill:#ffffff;fill-opacity:1;fill-rule:nonzero;stroke:none"
           d="m 0,0 0.047,-0.465 -0.246,-0.025 -0.046,0.458 -0.461,0.687 0.07,0.032 0.077,0.019 0.099,-0.016 0.064,-0.066 0.254,-0.4 0.169,0.439 0.05,0.078 0.098,0.039 0.073,0 L 0.316,0.767 0,0 z" /></g><g
         transform="translate(216.7704,25.500601)"
         id="g1340"><path
           inkscape:connector-curvature="0"
           id="path1342"
           style="fill:#ffffff;fill-opacity:1;fill-rule:nonzero;stroke:none"
           d="m 0,0 -0.037,0.156 -0.073,0.122 -0.119,0.072 -0.174,0.009 -0.108,-0.02 0.11,-0.83 0.099,0.013 0.172,0.055 0.098,0.103 0.039,0.143 L 0,0 M 0.252,0.036 0.25,-0.21 0.172,-0.422 0.011,-0.581 c -0.068,-0.042 -0.152,-0.07 -0.252,-0.083 l -0.384,-0.051 -0.158,1.197 0.195,0.045 0.141,0.022 c 0.12,0.016 0.222,0.013 0.306,-0.008 L 0.066,0.437 0.192,0.261 0.252,0.036" /></g><g
         transform="translate(217.82119,25.712698)"
         id="g1344"><path
           inkscape:connector-curvature="0"
           id="path1346"
           style="fill:#ffffff;fill-opacity:1;fill-rule:nonzero;stroke:none"
           d="m 0,0 -0.02,-0.102 -0.091,-0.054 -0.102,0.022 -0.053,0.09 0.023,0.101 0.089,0.052 L -0.053,0.088 0,0 z" /></g><g
         transform="translate(219.3425,25.375006)"
         id="g1348"><path
           inkscape:connector-curvature="0"
           id="path1350"
           style="fill:#ffffff;fill-opacity:1;fill-rule:nonzero;stroke:none"
           d="M 0,0 -0.031,-0.034 -0.09,-0.078 -0.183,-0.125 -0.313,-0.162 C -0.41,-0.181 -0.496,-0.181 -0.572,-0.164 l -0.2,0.096 -0.138,0.177 c -0.036,0.071 -0.063,0.152 -0.08,0.243 -0.018,0.09 -0.023,0.176 -0.014,0.257 l 0.066,0.22 0.148,0.165 c 0.064,0.044 0.143,0.076 0.237,0.094 L -0.425,1.1 -0.321,1.089 -0.244,1.067 -0.196,1.044 -0.162,1.015 -0.142,0.975 -0.155,0.898 -0.201,0.821 -0.258,0.855 -0.325,0.883 -0.406,0.897 -0.502,0.891 -0.648,0.824 -0.728,0.71 -0.756,0.565 -0.742,0.407 -0.695,0.249 -0.613,0.124 -0.492,0.05 -0.327,0.044 -0.238,0.075 -0.169,0.119 -0.12,0.168 -0.087,0.209 -0.056,0.184 -0.022,0.151 0.007,0.116 0.023,0.082 0.022,0.041 0,0" /></g><g
         transform="translate(219.7306,26.127005)"
         id="g1352"><path
           inkscape:connector-curvature="0"
           id="path1354"
           style="fill:#ffffff;fill-opacity:1;fill-rule:nonzero;stroke:none"
           d="M 0,0 0.449,0.101 0.34,0.584 0.369,0.594 0.398,0.604 0.427,0.613 0.478,0.619 0.533,0.61 0.58,0.577 0.611,0.508 0.849,-0.549 0.608,-0.603 0.492,-0.089 0.043,-0.19 0.159,-0.705 -0.083,-0.759 -0.35,0.428 l 0.031,0.011 0.026,0.01 0.025,0.007 0.055,0.007 L -0.158,0.454 -0.11,0.42 -0.079,0.353 0,0 z" /></g><g
         transform="translate(221.95919,25.924795)"
         id="g1356"><path
           inkscape:connector-curvature="0"
           id="path1358"
           style="fill:#ffffff;fill-opacity:1;fill-rule:nonzero;stroke:none"
           d="m 0,0 -0.199,-0.053 -0.362,0.563 -0.028,-0.667 -0.197,-0.052 -0.703,1.066 0.056,0.032 0.065,0.025 0.109,-0.002 0.077,-0.07 0.429,-0.692 0.025,0.598 -0.161,0.277 0.06,0.028 0.052,0.019 0.109,-0.003 0.073,-0.073 0.403,-0.676 0.007,0.77 0.028,0.107 0.092,0.064 L 0.007,1.274 0.065,1.275 0,0 z" /></g><g
         transform="translate(222.5522,27.150397)"
         id="g1360"><path
           inkscape:connector-curvature="0"
           id="path1362"
           style="fill:#ffffff;fill-opacity:1;fill-rule:nonzero;stroke:none"
           d="M 0,0 -0.006,-0.544 0.305,-0.449 0,0 z m 0.59,-0.864 -0.186,0.255 -0.402,-0.123 -0.008,-0.314 -0.237,-0.073 0.052,1.272 0.053,0.034 0.078,0.032 0.044,0.01 0.051,-0.001 0.052,-0.019 0.05,-0.047 0.7,-0.95 -0.247,-0.076 z" /></g><g
         transform="translate(223.85099,27.415503)"
         id="g1364"><path
           inkscape:connector-curvature="0"
           id="path1366"
           style="fill:#ffffff;fill-opacity:1;fill-rule:nonzero;stroke:none"
           d="m 0,0 -0.109,0.133 -0.17,-0.01 -0.053,-0.02 -0.036,-0.017 0.136,-0.397 0.081,0.028 0.145,0.107 L 0,0 M 0.24,0.107 0.266,-0.025 0.25,-0.139 0.203,-0.232 0.137,-0.303 0.585,-0.68 0.523,-0.725 0.457,-0.756 0.341,-0.765 0.231,-0.703 -0.08,-0.437 -0.174,-0.47 -0.025,-0.903 -0.263,-0.985 -0.658,0.16 -0.504,0.227 -0.359,0.282 C -0.193,0.34 -0.061,0.353 0.035,0.324 0.132,0.294 0.2,0.222 0.24,0.107" /></g><g
         transform="translate(224.697,27.891196)"
         id="g1368"><path
           inkscape:connector-curvature="0"
           id="path1370"
           style="fill:#ffffff;fill-opacity:1;fill-rule:nonzero;stroke:none"
           d="M 0,0 0.033,-0.543 0.337,-0.426 0,0 z m 0.651,-0.818 -0.204,0.24 -0.392,-0.152 0.015,-0.314 -0.231,-0.09 -0.041,1.272 0.05,0.038 0.077,0.039 0.042,0.012 L 0.018,0.231 0.072,0.215 0.125,0.171 0.892,-0.725 0.651,-0.818 z" /></g><g
         transform="translate(226.27009,27.710806)"
         id="g1372"><path
           inkscape:connector-curvature="0"
           id="path1374"
           style="fill:#ffffff;fill-opacity:1;fill-rule:nonzero;stroke:none"
           d="M 0,0 0.07,0.023 0.124,0.017 0.165,-0.01 0.192,-0.049 0.207,-0.079 0.218,-0.107 -0.488,-0.457 -1.03,0.634 -0.35,0.972 -0.331,0.943 -0.315,0.914 -0.302,0.814 -0.397,0.731 -0.718,0.572 -0.585,0.303 -0.239,0.474 -0.153,0.3 -0.498,0.128 -0.349,-0.173 0,0 z" /></g></g></g></svg>