<?xml version="1.0" encoding="utf-8"?>
<!-- Generator: Adobe Illustrator 15.0.0, SVG Export Plug-In . SVG Version: 6.00 Build 0)  -->
<!DOCTYPE svg PUBLIC "-//W3C//DTD SVG 1.1//EN" "http://www.w3.org/Graphics/SVG/1.1/DTD/svg11.dtd">
<svg version="1.1" id="Слой_1" xmlns="http://www.w3.org/2000/svg" xmlns:xlink="http://www.w3.org/1999/xlink" x="0px" y="0px"
	 width="106px" height="143px" viewBox="0 0 106 143" enable-background="new 0 0 106 143" xml:space="preserve">
<path fill="#302D7F" d="M52.744,142.701c24.745,0,44.803-20.06,44.803-44.804c0-12.372-5.014-23.573-13.123-31.682
	c0,0,1.66-11.24,6.033-21.344c7.383-17.057,14.744-22.07,14.744-22.07c-29-0.502-43.658,18.837-43.658,18.837
	C63.98,12.542,52.526,0.45,52.526,0.45c-11.371,17.057-8.49,41.672-8.528,41.622C28.214,21.071,0.593,22.917,0.593,22.917
	C17.013,39.146,20.896,66.32,20.896,66.32C12.885,74.414,7.94,85.61,7.94,97.897C7.94,122.644,28,142.701,52.744,142.701z"/>
<path fill="#FDEB1B" d="M52.315,0.31c-7.565,11.349-8.86,26.095-8.86,34.855c0,2.691,0.122,4.807,0.222,6.096
	c-8.157-10.427-19.269-14.946-27.238-16.89c-8.814-2.148-15.791-1.714-15.86-1.709L0.014,22.7l0.401,0.397
	c15.628,15.447,19.907,41.189,20.211,43.139C12.282,74.716,7.687,85.954,7.687,97.897c0,24.846,20.213,45.059,45.059,45.059
	c24.844,0,45.059-20.213,45.059-45.059c0-11.991-4.654-23.268-13.105-31.766c0.189-1.222,1.922-11.748,5.994-21.158
	c7.26-16.771,14.58-21.912,14.652-21.961l0.66-0.451l-0.799-0.014c-15.045-0.26-26.168,4.899-32.848,9.272
	c-5.73,3.751-9.258,7.577-10.502,9.04c0.188-2.483,0.277-4.845,0.277-7.071c0-10.91-2.035-18.771-3.947-23.747
	c-2.549-6.631-5.357-9.642-5.476-9.767l-0.22-0.231L52.315,0.31z M44.089,42.31c0.129-0.049,0.159-0.135,0.159-0.256
	c0-0.049-0.005-0.104-0.011-0.166c-0.103-1.129-0.275-3.529-0.275-6.733c0-8.626,1.271-23.076,8.598-34.275
	c0.707,0.84,3.051,3.866,5.165,9.38c1.891,4.93,3.898,12.717,3.898,23.53c0,2.454-0.104,5.063-0.334,7.831l-0.074,0.874l0.529-0.698
	c0.037-0.049,3.732-4.867,10.91-9.561c6.51-4.259,17.279-9.267,31.818-9.184c-1.893,1.582-8.107,7.529-14.25,21.721
	c-4.336,10.018-6.033,21.295-6.051,21.408l-0.02,0.125l0.092,0.092c8.414,8.414,13.047,19.602,13.047,31.501
	c0,24.563-19.984,44.55-44.548,44.55c-24.565,0-44.55-19.984-44.55-44.55c0-11.853,4.574-23.003,12.883-31.397l0.089-0.091
	l-0.018-0.125c-0.039-0.271-4.022-26.987-19.977-43.137c1.798-0.054,7.827-0.067,15.16,1.723
	c8.055,1.966,19.357,6.572,27.462,17.354l0.115,0.154L44.089,42.31z"/>
<path fill="#302D7F" d="M52.898,138.019c22.073,0,39.967-17.895,39.967-39.967c0-9.594-3.381-18.91-9.016-25.799
	c0,0-1.361,7.52-0.934,13.44l-59.614,0.001c0.251-4.837-0.936-13.441-0.936-13.441c-5.888,6.961-9.438,15.969-9.438,25.799
	C12.93,120.124,30.825,138.019,52.898,138.019z"/>
<path fill="#FDEB1B" d="M22.172,72.089c-6.125,7.241-9.497,16.463-9.497,25.963c0,22.179,18.043,40.223,40.223,40.223
	c22.178,0,40.223-18.044,40.223-40.223c0-9.449-3.307-18.91-9.074-25.959l-0.348-0.428l-0.1,0.543
	c-0.012,0.064-1.021,5.7-1.021,11.028c0,0.747,0.023,1.483,0.07,2.203c-0.529,0-58.571,0.001-59.085,0.001
	c0.016-0.389,0.027-0.783,0.027-1.208c0-4.899-0.962-11.937-0.973-12.015l-0.078-0.565L22.172,72.089z M23.302,85.949l59.887-0.001
	l-0.02-0.271c-0.057-0.793-0.082-1.615-0.082-2.444c0-4.302,0.664-8.812,0.916-10.366c5.473,6.91,8.605,16.051,8.605,25.188
	c0,21.896-17.814,39.713-39.712,39.713c-21.897,0-39.714-17.815-39.714-39.713c0-9.186,3.199-18.099,9.008-25.178
	c0.228,1.776,0.892,7.303,0.892,11.352c0,0.513-0.011,1.002-0.034,1.455l-0.014,0.269h0.268V85.949z"/>
<polygon fill="#FDEB1B" points="39.031,122.149 28.72,120.048 24.01,110.056 39.667,110.056 43.288,114.759 "/>
<polygon fill="#FDEB1B" points="26.683,121.589 23.749,125.132 20.758,121.759 17.703,116.794 15.285,111.417 21.267,111.353 "/>
<polygon fill="#FDEB1B" points="65.25,123.562 60.795,129.798 46.158,129.798 41.703,123.562 45.777,116.318 60.732,116.306 "/>
<polygon fill="#FDEB1B" points="58.244,137.796 52.261,138.052 46.533,137.478 42.212,136.544 45.905,132.345 60.287,132.345 
	63.852,136.417 "/>
<polygon fill="#FDEB1B" points="67.727,122.14 77.693,120.048 82.404,110.056 66.746,110.056 63.271,114.822 "/>
<polygon fill="#FDEB1B" points="79.73,121.589 82.428,125.132 85.457,121.589 88.385,116.88 90.574,111.64 85.291,111.257 "/>
<g>
	<rect x="1.219" y="85.636" fill="#302D7F" width="102.337" height="21.385"/>
	<path fill="#FDEB1B" d="M103.557,85.382H0.965v21.894h102.847V85.382H103.557z M103.303,85.89c0,0.492,0,20.386,0,20.875
		c-0.506,0-101.322,0-101.829,0c0-0.489,0-20.383,0-20.875C1.981,85.89,102.797,85.89,103.303,85.89z"/>
	<path fill="#FDEB1B" d="M15.425,98.026l1.665-2.85c0.047-0.072,0.163-0.278,0.348-0.619c0.635-1.238,0.951-2.114,0.951-2.625
		c0-0.293-0.038-0.486-0.115-0.582s-0.194-0.143-0.351-0.143h-0.643l0.207-0.746h4.754l-0.212,0.746
		c-0.563,0-1.174,0.473-1.837,1.418l-4.42,8.682c-0.536,0.803-1.005,1.459-1.401,1.969c-0.397,0.511-0.775,0.918-1.133,1.225
		c-0.356,0.305-0.723,0.523-1.092,0.655c-0.371,0.132-0.792,0.198-1.265,0.198c-0.551,0-1.032-0.11-1.445-0.33
		c-0.413-0.221-0.728-0.508-0.939-0.86c-0.213-0.354-0.319-0.72-0.319-1.099c0-0.534,0.152-0.98,0.457-1.34
		c0.306-0.359,0.707-0.539,1.206-0.539c0.476,0,0.861,0.15,1.162,0.455c0.301,0.303,0.451,0.732,0.451,1.295
		c0,0.064-0.006,0.146-0.017,0.248c-0.013,0.103-0.019,0.182-0.019,0.236c0,0.189-0.062,0.211,0.146,0.42
		c0.094,0.094,0.197,0.135,0.303,0.135c0.479,0,1.053-0.438,1.719-1.315l-3.45-10.052c-0.403-0.934-0.878-1.4-1.423-1.4H8.003
		l0.156-0.744h6.432l-0.225,0.744h-0.779c-0.485,0-0.729,0.18-0.729,0.535c0,0.051,0.058,0.229,0.174,0.535L15.425,98.026z"/>
	<path fill="#FDEB1B" d="M26.213,96.948l-1.125,4.469c-0.082,0.348-0.123,0.545-0.123,0.586c0,0.162,0.047,0.268,0.143,0.312
		c0.095,0.045,0.227,0.067,0.396,0.067h0.901l-0.19,0.744h-6.12l0.19-0.744h0.9c0.294,0,0.491-0.047,0.596-0.142
		c0.103-0.095,0.211-0.369,0.324-0.823l2.29-9.178c0.005-0.036,0.018-0.088,0.035-0.156c0.019-0.066,0.028-0.113,0.031-0.139
		c0.006-0.036,0.02-0.083,0.04-0.141c0.021-0.059,0.031-0.109,0.031-0.154c0-0.146-0.034-0.245-0.103-0.299
		c-0.066-0.053-0.219-0.08-0.451-0.08h-0.886l0.19-0.745h6.1l-0.189,0.745h-0.901c-0.227,0-0.387,0.021-0.48,0.061
		c-0.096,0.041-0.168,0.121-0.219,0.238s-0.119,0.342-0.203,0.67l-0.951,3.795c0.093,0.012,0.226,0.018,0.396,0.018
		c0.542,0,0.971-0.153,1.285-0.461c0.313-0.306,0.719-0.863,1.213-1.676c0.411-0.678,0.747-1.209,1.007-1.592
		s0.536-0.729,0.832-1.042c0.295-0.312,0.621-0.558,0.979-0.739c0.357-0.181,0.748-0.271,1.168-0.271
		c0.554,0,0.966,0.186,1.237,0.553c0.272,0.368,0.409,0.771,0.409,1.207c0,0.381-0.136,0.715-0.407,1.001
		c-0.271,0.287-0.603,0.431-0.993,0.431c-0.422,0-0.771-0.143-1.055-0.43c-0.282-0.286-0.424-0.598-0.424-0.934v-0.154h-0.084
		c-0.506,1.341-1.076,2.411-1.711,3.211c-0.635,0.801-1.469,1.271-2.501,1.414c1.154,0.225,2.003,0.669,2.546,1.334
		s0.988,1.55,1.335,2.654c0.124,0.385,0.232,0.66,0.324,0.83c0.091,0.168,0.23,0.254,0.421,0.254c0.139,0,0.25-0.063,0.335-0.187
		c0.084-0.124,0.21-0.356,0.376-0.698l0.729,0.416c-0.139,0.521-0.408,1.021-0.812,1.496c-0.4,0.475-0.986,0.713-1.754,0.713
		c-0.709,0-1.293-0.242-1.753-0.728s-0.806-1.037-1.037-1.66c-0.23-0.622-0.457-1.364-0.677-2.226
		c-0.147-0.559-0.258-0.936-0.333-1.133c-0.074-0.195-0.207-0.356-0.397-0.482C26.906,97.029,26.613,96.96,26.213,96.948z"/>
	<path fill="#FDEB1B" d="M43.367,91.366c0.547,0,0.996,0.223,1.347,0.669c0.353,0.446,0.527,1.033,0.527,1.761
		c0,0.502-0.128,1.064-0.383,1.688c-0.257,0.623-0.696,1.17-1.322,1.642c-0.626,0.471-1.449,0.707-2.471,0.707
		c-0.393,0-0.739-0.058-1.04-0.172l1.421-5.602C41.931,91.597,42.572,91.366,43.367,91.366z M42.511,98.989
		c0.961,0,1.816-0.12,2.566-0.363c0.75-0.242,1.379-0.572,1.888-0.988c0.509-0.418,0.893-0.891,1.148-1.42
		c0.258-0.527,0.386-1.074,0.386-1.643c0-0.414-0.05-0.841-0.15-1.279c-0.1-0.439-0.313-0.883-0.642-1.326s-0.836-0.816-1.523-1.119
		c-0.687-0.301-1.582-0.452-2.683-0.452c-0.855,0-1.498,0.021-1.928,0.063c-0.437,0.043-0.759,0.063-0.972,0.063h-3.328l-0.19,0.765
		h0.9c0.169,0,0.3,0.021,0.393,0.063s0.14,0.146,0.14,0.316c0,0.037-0.04,0.232-0.117,0.59l-2.305,9.16
		c-0.091,0.342-0.16,0.566-0.207,0.676c-0.048,0.109-0.119,0.186-0.214,0.227s-0.255,0.061-0.479,0.061h-0.9l-0.189,0.746h6.111
		l0.19-0.746h-0.9c-0.23,0-0.382-0.025-0.451-0.078c-0.067-0.055-0.104-0.152-0.104-0.299c0-0.057,0.021-0.154,0.068-0.295
		c0.005-0.017,0.012-0.041,0.019-0.074c0.007-0.03,0.013-0.053,0.016-0.063c0.009-0.019,0.016-0.042,0.021-0.076
		s0.011-0.06,0.017-0.075l0.713-2.744C40.744,98.886,41.647,98.989,42.511,98.989z"/>
	<path fill="#FDEB1B" d="M54.363,93.537l0.436,4.039h-3.573L54.363,93.537z M55.057,101.38c0,0.668-0.342,1.002-1.023,1.002h-0.707
		l-0.195,0.744h6.162l0.189-0.744c-0.406-0.009-0.719-0.061-0.938-0.154s-0.371-0.219-0.455-0.373
		c-0.082-0.155-0.133-0.34-0.146-0.557c-0.016-0.215-0.029-0.426-0.039-0.631l-0.992-10.396h-1.16l-8.756,11.109
		c-0.118,0.156-0.303,0.362-0.554,0.617c-0.252,0.256-0.461,0.383-0.627,0.383h-0.298l-0.24,0.746h4.666l0.24-0.746h-0.447
		c-0.498,0-0.745-0.166-0.745-0.5c0-0.375,0.185-0.94,0.557-1.695c0.371-0.756,0.729-1.344,1.073-1.768h4.178L55.057,101.38z"/>
	<path fill="#FDEB1B" d="M67.779,92.229l-2.305,9.177c-0.082,0.349-0.123,0.544-0.123,0.586c0,0.163,0.049,0.269,0.143,0.312
		c0.096,0.045,0.227,0.067,0.396,0.067h0.9l-0.189,0.745h-6.123l0.189-0.745h0.902c0.293,0,0.492-0.047,0.596-0.142
		c0.102-0.094,0.211-0.368,0.324-0.823l2.291-9.177c0.004-0.037,0.018-0.088,0.035-0.156c0.018-0.066,0.027-0.113,0.031-0.139
		c0.004-0.036,0.02-0.084,0.039-0.141c0.021-0.059,0.033-0.109,0.033-0.154c0-0.146-0.035-0.246-0.104-0.299
		c-0.066-0.055-0.219-0.08-0.451-0.08h-0.887l0.189-0.746h6.104l-0.189,0.746H68.68c-0.215,0-0.369,0.019-0.465,0.055
		c-0.094,0.035-0.17,0.117-0.229,0.242S67.861,91.906,67.779,92.229z M63.844,88.187c0.107-0.393,0.32-0.731,0.637-1.018
		c0.316-0.287,0.643-0.431,0.979-0.431c0.205,0,0.398,0.054,0.578,0.155c0.18,0.104,0.27,0.293,0.27,0.568
		c0,0.319-0.068,0.647-0.207,0.984c-0.137,0.337-0.328,0.619-0.576,0.848c-0.248,0.227-0.531,0.34-0.848,0.34
		c-0.209,0-0.402-0.053-0.58-0.156c-0.18-0.104-0.268-0.293-0.268-0.567C63.828,88.591,63.832,88.351,63.844,88.187z M67.799,88.187
		c0.107-0.395,0.314-0.735,0.617-1.02c0.303-0.285,0.629-0.429,0.977-0.429c0.186,0,0.377,0.046,0.574,0.138
		c0.195,0.092,0.293,0.286,0.293,0.586c0,0.311-0.07,0.635-0.217,0.978c-0.143,0.343-0.342,0.628-0.596,0.854
		s-0.533,0.34-0.834,0.34c-0.207,0-0.4-0.052-0.58-0.154c-0.182-0.104-0.271-0.293-0.271-0.568
		C67.762,88.591,67.775,88.351,67.799,88.187z"/>
	<path fill="#FDEB1B" d="M74.281,96.509l-1.25,4.908c-0.082,0.334-0.123,0.528-0.123,0.586c0,0.162,0.047,0.268,0.141,0.312
		c0.096,0.045,0.229,0.067,0.396,0.067h0.902l-0.189,0.744h-6.127l0.189-0.744h0.902c0.293,0,0.492-0.047,0.596-0.142
		s0.211-0.369,0.324-0.823l2.293-9.179c0.004-0.036,0.018-0.088,0.035-0.155c0.018-0.066,0.029-0.113,0.031-0.14
		c0.006-0.036,0.02-0.083,0.041-0.142c0.02-0.058,0.031-0.107,0.031-0.152c0-0.146-0.033-0.245-0.104-0.299
		c-0.066-0.053-0.219-0.08-0.453-0.08h-0.885l0.189-0.745h6.105l-0.191,0.745h-0.9c-0.215,0-0.371,0.019-0.465,0.055
		c-0.096,0.037-0.172,0.117-0.229,0.242c-0.059,0.125-0.129,0.35-0.209,0.671l-0.848,3.429h4.893l0.85-3.429
		c0.08-0.315,0.121-0.515,0.121-0.589c0-0.135-0.031-0.23-0.094-0.291c-0.063-0.059-0.211-0.088-0.443-0.088H78.91l0.189-0.745
		h6.127l-0.189,0.745h-0.902c-0.291,0-0.488,0.047-0.592,0.14s-0.213,0.368-0.328,0.829l-2.293,9.178
		c-0.01,0.043-0.029,0.1-0.057,0.174c-0.027,0.072-0.047,0.137-0.061,0.19c-0.012,0.054-0.02,0.128-0.02,0.222
		c0,0.135,0.031,0.231,0.094,0.289c0.063,0.061,0.211,0.09,0.445,0.09h0.9l-0.193,0.744H75.91l0.189-0.744h0.902
		c0.297,0,0.494-0.045,0.592-0.136c0.102-0.09,0.209-0.366,0.328-0.829l1.232-4.908H74.281z"/>
	<path fill="#FDEB1B" d="M92.59,93.537l0.436,4.039h-3.572L92.59,93.537z M93.283,101.38c0,0.668-0.342,1.002-1.023,1.002h-0.707
		l-0.195,0.744h6.16l0.191-0.744c-0.408-0.009-0.719-0.061-0.938-0.154c-0.221-0.094-0.371-0.219-0.455-0.373
		c-0.082-0.155-0.133-0.34-0.146-0.557c-0.016-0.215-0.029-0.426-0.041-0.631l-0.99-10.396h-1.16l-8.758,11.109
		c-0.117,0.156-0.303,0.362-0.553,0.617c-0.252,0.256-0.461,0.383-0.627,0.383h-0.297l-0.242,0.746h4.668l0.24-0.746h-0.449
		c-0.496,0-0.744-0.166-0.744-0.5c0-0.375,0.186-0.94,0.557-1.695c0.371-0.756,0.729-1.344,1.072-1.768h4.18L93.283,101.38z"/>
</g>
<path fill="#FDEB1B" d="M93.555,28.964C82.215,47.103,80.09,53.815,78.799,83.128c0,0-25.311-0.008-25.736,0l0,0
	c0,0-0.005,0-0.006,0s-0.005,0-0.005,0l0,0c-0.425-0.008-25.736,0-25.736,0c-1.291-29.313-3.415-36.025-14.754-54.164
	c17.65,1.574,31.223,17.853,30.992,18.121c-3.442,4.034-3.64,10.532,0.605,14.541c0.061,0.059,5.834-3.896,5.664-6.884
	c-0.928-16.321-0.929-26.501,3.229-45.013V9.684c0.002,0.008,0.003,0.016,0.005,0.023c0.002-0.008,0.003-0.016,0.006-0.023v0.049
	c3.472,16.484,4.486,31.742,3.228,45.009c-0.283,2.979,5.605,6.94,5.664,6.884c4.244-4.009,4.049-10.507,0.605-14.541
	C62.33,46.817,75.904,30.538,93.555,28.964z M46.465,72.202c-0.36,1.506-0.445,4.094,0.063,6.044l3.563-0.041c0,0,0-3.202,0-4.157
	C47.928,73.411,46.465,72.202,46.465,72.202z M56.023,74.048c0,0.955,0,4.157,0,4.157l3.563,0.041
	c0.51-1.95,0.426-4.538,0.064-6.044C59.65,72.202,58.188,73.411,56.023,74.048z M22.79,36.216c1.464,2.291,6.004,8.506,6.959,15.698
	h5.601c-0.085-3.649,1.442-5.432,1.442-5.432C33.599,41.695,22.79,36.216,22.79,36.216z M36.006,58.106l-5.111-0.001
	c0.509,2.8,1.908,13.108,1.526,19.983h7.935c-0.615-3.67-0.615-7.914,0.487-11.563C36.941,63.556,36.006,58.106,36.006,58.106z
	 M69.324,46.488c0,0,1.525,1.782,1.441,5.433h5.602c0.955-7.193,5.494-13.408,6.959-15.699
	C83.326,36.22,72.516,41.699,69.324,46.488z M65.273,66.527c1.102,3.647,1.102,7.892,0.486,11.562h7.936
	c-0.383-6.873,1.018-17.184,1.525-19.982l-5.111,0.001C70.109,58.106,69.176,63.556,65.273,66.527z M55.131,63.216
	c0.256,1.78,0.043,2.611-0.148,4.395c1.02-0.445,2.539-1.844,2.313-1.977C56.213,64.996,55.131,63.216,55.131,63.216z
	 M48.656,65.615c-0.228,0.133,1.362,1.563,2.382,2.008c-0.191-1.782-0.473-2.646-0.218-4.427
	C50.82,63.197,49.738,64.979,48.656,65.615z"/>
</svg>
