<?xml version="1.0" encoding="utf-8"?>
<!DOCTYPE svg PUBLIC "-//W3C//DTD SVG 1.1//EN" "http://www.w3.org/Graphics/SVG/1.1/DTD/svg11.dtd">
<svg version="1.1" id="Triangles" xmlns="http://www.w3.org/2000/svg" xmlns:xlink="http://www.w3.org/1999/xlink" x="0px" y="0px" width="529.699px" height="529.695px" viewBox="0 0 529.699 529.695">
<path fill="#FFFFFF" d="M529.699,264.852c0,146.254-118.602,264.844-264.852,264.844C118.551,529.695,0,411.105,0,264.852
	C0,118.57,118.551,0,264.848,0C411.098,0,529.699,118.57,529.699,264.852"/>
<path fill="#00A76D" d="M264.496,54.895c-112.449,0-203.547,91.133-203.547,203.57c0,112.441,91.098,203.586,203.547,203.586
	c112.453,0,203.605-91.145,203.605-203.586C468.102,146.027,376.949,54.895,264.496,54.895 M269.402,408.684v-34.859
	l122.547-70.027l-46.203-27.602l-102.047,58.836v88.465l-30.148,17.488v-88.477l-76.555,44.129l0.203-274.035l76.352,44.117
	V78.465l92.797,53.508v34.961l-62.648-36.145v53.312l62.648,36.125v33.363l-62.648-36.344v82.93l148.25-84.301l-60.305-34.34
	V146.68l119.406,69.195l-75.902,43.578l75.902,44.344L269.402,408.684z"/>
<polyline fill="#00A76D" points="167.398,344.414 213.551,317.551 213.551,200.078 167.254,173.32 167.398,344.414 		"/>
<path fill="#A7A9AC" d="M55.949,258.465c0,115.012,93.547,208.586,208.547,208.586c115.051,0,208.605-93.574,208.605-208.586
	c0-115.004-93.555-208.57-208.605-208.57C149.496,49.895,55.949,143.461,55.949,258.465 M65.949,258.465
	c0-109.492,89.051-198.57,198.547-198.57c109.504,0,198.605,89.078,198.605,198.57c0,109.5-89.102,198.586-198.605,198.586
	C155,457.051,65.949,367.965,65.949,258.465z"/>
<path d="M185.549,482.256l-10.75,20.899c-37.8-14.3-71.35-37.149-98.15-66.399l20.7-11.9
	C121.699,450.256,151.849,470.006,185.549,482.256z"/>
<path fill="#FFCB0B" d="M431.75,424.867l20.75,11.902c-26.848,29.246-60.398,52.105-98.203,66.379l-10.746-20.914
	C377.301,469.984,407.398,450.258,431.75,424.867"/>
<path fill="#D72027" d="M264.547,496.215c21.305,0,41.852-3.016,61.402-8.379l8.402,21.879
	c-22.203,6.344-45.551,9.898-69.805,9.898c-24.199,0-47.598-3.555-69.793-9.898l8.445-21.879
	C222.75,493.199,243.297,496.215,264.547,496.215"/>
<path fill="#242021" d="M15.852,264.945c0-137.098,111.547-248.637,248.645-248.637c137.102,0,248.656,111.539,248.656,248.637
	c0,60.473-21.703,115.953-57.758,159.105l5.258,3.004c36.496-44.059,58.445-100.57,58.445-162.109
	c0-140.371-114.25-254.566-254.602-254.566c-140.398,0-254.598,114.195-254.598,254.566c0,61.566,22.004,118.09,58.5,162.168
	l5.25-3.012C37.598,380.941,15.852,325.441,15.852,264.945"/>
</svg>
