<?xml version="1.0" encoding="UTF-8" standalone="no"?>
<!-- Created with Inkscape (http://www.inkscape.org/) -->

<svg
   xmlns:dc="http://purl.org/dc/elements/1.1/"
   xmlns:cc="http://creativecommons.org/ns#"
   xmlns:rdf="http://www.w3.org/1999/02/22-rdf-syntax-ns#"
   xmlns:svg="http://www.w3.org/2000/svg"
   xmlns="http://www.w3.org/2000/svg"
   xmlns:xlink="http://www.w3.org/1999/xlink"
   xmlns:sodipodi="http://sodipodi.sourceforge.net/DTD/sodipodi-0.dtd"
   xmlns:inkscape="http://www.inkscape.org/namespaces/inkscape"
   width="200"
   height="301.14999"
   id="svg10236"
   version="1.1"
   inkscape:version="0.47 r22583"
   sodipodi:docname="New document 4">
  <defs
     id="defs10238">
    <linearGradient
       id="linearGradient10819">
      <stop
         style="stop-color:#ffffff;stop-opacity:1"
         offset="0"
         id="stop10821" />
      <stop
         style="stop-color:#fdb813;stop-opacity:1"
         offset="0.1"
         id="stop10823" />
      <stop
         style="stop-color:#fdb813;stop-opacity:1"
         offset="0.2"
         id="stop10825" />
      <stop
         style="stop-color:#f5ad15;stop-opacity:1"
         offset="0.30000001"
         id="stop10827" />
      <stop
         style="stop-color:#e28d19;stop-opacity:1"
         offset="0.40000001"
         id="stop10829" />
      <stop
         style="stop-color:#d67a19;stop-opacity:1"
         offset="0.5"
         id="stop10831" />
      <stop
         style="stop-color:#cb6718;stop-opacity:1"
         offset="0.60000002"
         id="stop10833" />
      <stop
         style="stop-color:#ba4a16;stop-opacity:1"
         offset="0.69999999"
         id="stop10835" />
      <stop
         style="stop-color:#ac3113;stop-opacity:1"
         offset="0.80000001"
         id="stop10837" />
      <stop
         style="stop-color:#ac3113;stop-opacity:1"
         offset="0.89999998"
         id="stop10839" />
      <stop
         id="stop10841"
         offset="1"
         style="stop-color:#ac3113;stop-opacity:1" />
    </linearGradient>
    <linearGradient
       id="linearGradient10793">
      <stop
         id="stop10795"
         offset="0"
         style="stop-color:#ffffff;stop-opacity:1" />
      <stop
         id="stop10797"
         offset="0.1"
         style="stop-color:#fdb813;stop-opacity:1" />
      <stop
         id="stop10799"
         offset="0.2"
         style="stop-color:#fdb813;stop-opacity:1" />
      <stop
         id="stop10801"
         offset="0.30000001"
         style="stop-color:#f5ad15;stop-opacity:1" />
      <stop
         id="stop10803"
         offset="0.40000001"
         style="stop-color:#e28d19;stop-opacity:1" />
      <stop
         id="stop10805"
         offset="0.5"
         style="stop-color:#d67a19;stop-opacity:1" />
      <stop
         id="stop10807"
         offset="0.60000002"
         style="stop-color:#cb6718;stop-opacity:1" />
      <stop
         id="stop10809"
         offset="0.69999999"
         style="stop-color:#ba4a16;stop-opacity:1" />
      <stop
         id="stop10811"
         offset="0.80000001"
         style="stop-color:#ac3113;stop-opacity:1" />
      <stop
         id="stop10813"
         offset="0.89999998"
         style="stop-color:#ac3113;stop-opacity:1" />
      <stop
         style="stop-color:#ac3113;stop-opacity:1"
         offset="1"
         id="stop10815" />
    </linearGradient>
    <linearGradient
       id="linearGradient10759">
      <stop
         style="stop-color:#fdb813;stop-opacity:1"
         offset="0"
         id="stop10761" />
      <stop
         style="stop-color:#fdb813;stop-opacity:1"
         offset="0.1"
         id="stop10763" />
      <stop
         style="stop-color:#fdb813;stop-opacity:1"
         offset="0.2"
         id="stop10765" />
      <stop
         style="stop-color:#fdb813;stop-opacity:1"
         offset="0.30000001"
         id="stop10767" />
      <stop
         style="stop-color:#fdb813;stop-opacity:1"
         offset="0.40000001"
         id="stop10769" />
      <stop
         style="stop-color:#fdb813;stop-opacity:1"
         offset="0.5"
         id="stop10771" />
      <stop
         style="stop-color:#f3a916;stop-opacity:1"
         offset="0.60000002"
         id="stop10773" />
      <stop
         style="stop-color:#e99818;stop-opacity:1"
         offset="0.69999999"
         id="stop10775" />
      <stop
         style="stop-color:#d97d1a;stop-opacity:1"
         offset="0.80000001"
         id="stop10777" />
      <stop
         style="stop-color:#d17119;stop-opacity:1"
         offset="0.89999998"
         id="stop10779" />
      <stop
         id="stop10781"
         offset="1"
         style="stop-color:#d17119;stop-opacity:1" />
    </linearGradient>
    <linearGradient
       id="linearGradient10729">
      <stop
         id="stop10755"
         offset="0"
         style="stop-color:#f7982c;stop-opacity:1" />
      <stop
         id="stop10753"
         offset="0.1"
         style="stop-color:#f99f29;stop-opacity:1" />
      <stop
         id="stop10751"
         offset="0.2"
         style="stop-color:#fbaf3a;stop-opacity:1" />
      <stop
         id="stop10749"
         offset="0.30000001"
         style="stop-color:#fec04f;stop-opacity:1" />
      <stop
         id="stop10747"
         offset="0.40000001"
         style="stop-color:#ffd164;stop-opacity:1" />
      <stop
         id="stop10745"
         offset="0.5"
         style="stop-color:#ffe377;stop-opacity:1" />
      <stop
         id="stop10743"
         offset="0.60000002"
         style="stop-color:#ffcb43;stop-opacity:1" />
      <stop
         id="stop10741"
         offset="0.69999999"
         style="stop-color:#f7b114;stop-opacity:1" />
      <stop
         id="stop10739"
         offset="0.80000001"
         style="stop-color:#e29318;stop-opacity:1" />
      <stop
         id="stop10737"
         offset="0.89999998"
         style="stop-color:#cd7917;stop-opacity:1" />
      <stop
         style="stop-color:#c77116;stop-opacity:1"
         offset="1"
         id="stop10733" />
    </linearGradient>
    <radialGradient
       fx="0"
       fy="0"
       cx="0"
       cy="0"
       r="1"
       gradientUnits="userSpaceOnUse"
       gradientTransform="matrix(149.909,0,0,151.004,277.035,489.13699)"
       spreadMethod="pad"
       id="radialGradient10723">
      <stop
         style="stop-opacity:1;stop-color:#fdb813"
         offset="0"
         id="stop10725" />
      <stop
         style="stop-opacity:1;stop-color:#ac3113"
         offset="1"
         id="stop10727" />
    </radialGradient>
    <linearGradient
       x1="0"
       y1="0"
       x2="1"
       y2="0"
       gradientUnits="userSpaceOnUse"
       gradientTransform="matrix(62.031105,0,0,62.031105,264.78201,615.18701)"
       spreadMethod="pad"
       id="linearGradient10715">
      <stop
         style="stop-opacity:1;stop-color:#f7931d"
         offset="0"
         id="stop10717" />
      <stop
         style="stop-opacity:1;stop-color:#c77116"
         offset="1"
         id="stop10719" />
    </linearGradient>
    <inkscape:perspective
       sodipodi:type="inkscape:persp3d"
       inkscape:vp_x="0 : 526.18109 : 1"
       inkscape:vp_y="0 : 1000 : 0"
       inkscape:vp_z="744.09448 : 526.18109 : 1"
       inkscape:persp3d-origin="372.04724 : 350.78739 : 1"
       id="perspective10244" />
    <inkscape:perspective
       id="perspective10226"
       inkscape:persp3d-origin="0.5 : 0.33333333 : 1"
       inkscape:vp_z="1 : 0.5 : 1"
       inkscape:vp_y="0 : 1000 : 0"
       inkscape:vp_x="0 : 0.5 : 1"
       sodipodi:type="inkscape:persp3d" />
    <radialGradient
       id="radialGradient7680"
       spreadMethod="pad"
       gradientTransform="matrix(157.526,0,0,158.67599,266.798,508.23498)"
       gradientUnits="userSpaceOnUse"
       r="1"
       cy="0"
       cx="0"
       fy="0"
       fx="0">
      <stop
         id="stop7682"
         offset="0"
         style="stop-opacity:1;stop-color:#f68e55" />
      <stop
         id="stop7684"
         offset="1"
         style="stop-opacity:1;stop-color:#ed1c24" />
    </radialGradient>
    <radialGradient
       r="1"
       fy="5.8763758e-17"
       fx="4.0766002e-16"
       cy="5.8763758e-17"
       cx="4.0766002e-16"
       spreadMethod="pad"
       gradientTransform="matrix(221.73625,0,0,-223.35499,577.78925,580.70054)"
       gradientUnits="userSpaceOnUse"
       id="radialGradient10234"
       xlink:href="#radialGradient7680"
       inkscape:collect="always" />
    <inkscape:perspective
       id="perspective10273"
       inkscape:persp3d-origin="0.5 : 0.33333333 : 1"
       inkscape:vp_z="1 : 0.5 : 1"
       inkscape:vp_y="0 : 1000 : 0"
       inkscape:vp_x="0 : 0.5 : 1"
       sodipodi:type="inkscape:persp3d" />
    <clipPath
       id="clipPath7692"
       clipPathUnits="userSpaceOnUse">
      <path
         id="path7694"
         d="m -7,852.53 609,0 0,-864 -609,0 0,864 z" />
    </clipPath>
    <clipPath
       id="clipPath7698"
       clipPathUnits="userSpaceOnUse">
      <path
         id="path7700"
         d="m -7,852.5 609,0 0,-864 -609,0 0,864 z" />
    </clipPath>
    <clipPath
       id="clipPath7704"
       clipPathUnits="userSpaceOnUse">
      <path
         id="path7706"
         clip-rule="evenodd"
         d="m 7.9,664.34 582.06,0 0,-511.82 -582.06,0 0,511.82 z" />
    </clipPath>
    <clipPath
       id="clipPath7710"
       clipPathUnits="userSpaceOnUse">
      <path
         id="path7712"
         d="m 1208.88,2200.57 -1830.48,0 0,-2634.09 1830.48,0 0,2634.09 z" />
    </clipPath>
    <clipPath
       id="clipPath7716"
       clipPathUnits="userSpaceOnUse">
      <path
         id="path7718"
         d="m 0,841.98 595.2,0 L 595.2,0 0,0 0,841.98 z" />
    </clipPath>
    <inkscape:perspective
       id="perspective10355"
       inkscape:persp3d-origin="0.5 : 0.33333333 : 1"
       inkscape:vp_z="1 : 0.5 : 1"
       inkscape:vp_y="0 : 1000 : 0"
       inkscape:vp_x="0 : 0.5 : 1"
       sodipodi:type="inkscape:persp3d" />
    <inkscape:perspective
       id="perspective10386"
       inkscape:persp3d-origin="0.5 : 0.33333333 : 1"
       inkscape:vp_z="1 : 0.5 : 1"
       inkscape:vp_y="0 : 1000 : 0"
       inkscape:vp_x="0 : 0.5 : 1"
       sodipodi:type="inkscape:persp3d" />
    <linearGradient
       id="linearGradient7464"
       spreadMethod="pad"
       gradientTransform="matrix(62.031105,0,0,62.031105,264.78201,615.18701)"
       gradientUnits="userSpaceOnUse"
       y2="0"
       x2="1"
       y1="0"
       x1="0">
      <stop
         id="stop7466"
         offset="0"
         style="stop-opacity:1;stop-color:#f7931d" />
      <stop
         id="stop7468"
         offset="1"
         style="stop-opacity:1;stop-color:#c77116" />
    </linearGradient>
    <inkscape:perspective
       id="perspective10421"
       inkscape:persp3d-origin="0.5 : 0.33333333 : 1"
       inkscape:vp_z="1 : 0.5 : 1"
       inkscape:vp_y="0 : 1000 : 0"
       inkscape:vp_x="0 : 0.5 : 1"
       sodipodi:type="inkscape:persp3d" />
    <radialGradient
       id="radialGradient7536"
       spreadMethod="pad"
       gradientTransform="matrix(149.89999,0,0,150.994,277.035,489.13699)"
       gradientUnits="userSpaceOnUse"
       r="1"
       cy="0"
       cx="0"
       fy="0"
       fx="0">
      <stop
         id="stop7538"
         offset="0"
         style="stop-opacity:1;stop-color:#fdb813" />
      <stop
         id="stop7540"
         offset="1"
         style="stop-opacity:1;stop-color:#ac3113" />
    </radialGradient>
    <inkscape:perspective
       id="perspective10456"
       inkscape:persp3d-origin="0.5 : 0.33333333 : 1"
       inkscape:vp_z="1 : 0.5 : 1"
       inkscape:vp_y="0 : 1000 : 0"
       inkscape:vp_x="0 : 0.5 : 1"
       sodipodi:type="inkscape:persp3d" />
    <radialGradient
       id="radialGradient7656"
       spreadMethod="pad"
       gradientTransform="matrix(157.517,0,0,158.66701,266.798,508.23498)"
       gradientUnits="userSpaceOnUse"
       r="1"
       cy="0"
       cx="0"
       fy="0"
       fx="0">
      <stop
         id="stop7658"
         offset="0"
         style="stop-opacity:1;stop-color:#f68e55" />
      <stop
         id="stop7660"
         offset="1"
         style="stop-opacity:1;stop-color:#ed1c24" />
    </radialGradient>
    <radialGradient
       r="1"
       fy="5.0111824e-16"
       fx="-5.2627173e-16"
       cy="5.0111824e-16"
       cx="-5.2627173e-16"
       spreadMethod="pad"
       gradientTransform="matrix(260.75549,0,0,-262.65922,577.64933,580.62801)"
       gradientUnits="userSpaceOnUse"
       id="radialGradient10464"
       xlink:href="#radialGradient7656"
       inkscape:collect="always" />
    <inkscape:perspective
       id="perspective10491"
       inkscape:persp3d-origin="0.5 : 0.33333333 : 1"
       inkscape:vp_z="1 : 0.5 : 1"
       inkscape:vp_y="0 : 1000 : 0"
       inkscape:vp_x="0 : 0.5 : 1"
       sodipodi:type="inkscape:persp3d" />
    <radialGradient
       id="radialGradient7632"
       spreadMethod="pad"
       gradientTransform="matrix(157.52299,0,0,158.673,266.798,508.23498)"
       gradientUnits="userSpaceOnUse"
       r="1"
       cy="0"
       cx="0"
       fy="0"
       fx="0">
      <stop
         id="stop7634"
         offset="0"
         style="stop-opacity:1;stop-color:#f68e55" />
      <stop
         id="stop7636"
         offset="1"
         style="stop-opacity:1;stop-color:#ed1c24" />
    </radialGradient>
    <radialGradient
       r="1"
       fy="-5.2909066e-17"
       fx="9.486769e-17"
       cy="-5.2909066e-17"
       cx="9.486769e-17"
       spreadMethod="pad"
       gradientTransform="matrix(306.77416,0,0,-309.01379,577.71892,580.59279)"
       gradientUnits="userSpaceOnUse"
       id="radialGradient10499"
       xlink:href="#radialGradient7632"
       inkscape:collect="always" />
    <inkscape:perspective
       id="perspective10526"
       inkscape:persp3d-origin="0.5 : 0.33333333 : 1"
       inkscape:vp_z="1 : 0.5 : 1"
       inkscape:vp_y="0 : 1000 : 0"
       inkscape:vp_x="0 : 0.5 : 1"
       sodipodi:type="inkscape:persp3d" />
    <inkscape:perspective
       id="perspective10540"
       inkscape:persp3d-origin="0.5 : 0.33333333 : 1"
       inkscape:vp_z="1 : 0.5 : 1"
       inkscape:vp_y="0 : 1000 : 0"
       inkscape:vp_x="0 : 0.5 : 1"
       sodipodi:type="inkscape:persp3d" />
    <radialGradient
       id="radialGradient7512"
       spreadMethod="pad"
       gradientTransform="matrix(149.909,0,0,151.004,277.035,489.13699)"
       gradientUnits="userSpaceOnUse"
       r="1"
       cy="0"
       cx="0"
       fy="0"
       fx="0">
      <stop
         id="stop7514"
         offset="0"
         style="stop-opacity:1;stop-color:#fdb813" />
      <stop
         id="stop7516"
         offset="1"
         style="stop-opacity:1;stop-color:#ac3113" />
    </radialGradient>
    <inkscape:perspective
       id="perspective10575"
       inkscape:persp3d-origin="0.5 : 0.33333333 : 1"
       inkscape:vp_z="1 : 0.5 : 1"
       inkscape:vp_y="0 : 1000 : 0"
       inkscape:vp_x="0 : 0.5 : 1"
       sodipodi:type="inkscape:persp3d" />
    <radialGradient
       id="radialGradient7560"
       spreadMethod="pad"
       gradientTransform="matrix(149.91099,0,0,151.006,277.035,489.13699)"
       gradientUnits="userSpaceOnUse"
       r="1"
       cy="0"
       cx="0"
       fy="0"
       fx="0">
      <stop
         id="stop7562"
         offset="0"
         style="stop-opacity:1;stop-color:#fdb813" />
      <stop
         id="stop7564"
         offset="1"
         style="stop-opacity:1;stop-color:#ac3113" />
    </radialGradient>
    <inkscape:perspective
       id="perspective10610"
       inkscape:persp3d-origin="0.5 : 0.33333333 : 1"
       inkscape:vp_z="1 : 0.5 : 1"
       inkscape:vp_y="0 : 1000 : 0"
       inkscape:vp_x="0 : 0.5 : 1"
       sodipodi:type="inkscape:persp3d" />
    <radialGradient
       id="radialGradient7584"
       spreadMethod="pad"
       gradientTransform="matrix(149.903,0,0,150.99699,277.035,489.13699)"
       gradientUnits="userSpaceOnUse"
       r="1"
       cy="0"
       cx="0"
       fy="0"
       fx="0">
      <stop
         id="stop7586"
         offset="0"
         style="stop-opacity:1;stop-color:#fdb813" />
      <stop
         id="stop7588"
         offset="1"
         style="stop-opacity:1;stop-color:#ac3113" />
    </radialGradient>
    <inkscape:perspective
       id="perspective10645"
       inkscape:persp3d-origin="0.5 : 0.33333333 : 1"
       inkscape:vp_z="1 : 0.5 : 1"
       inkscape:vp_y="0 : 1000 : 0"
       inkscape:vp_x="0 : 0.5 : 1"
       sodipodi:type="inkscape:persp3d" />
    <radialGradient
       id="radialGradient7608"
       spreadMethod="pad"
       gradientTransform="matrix(149.897,0,0,150.991,277.035,489.13699)"
       gradientUnits="userSpaceOnUse"
       r="1"
       cy="0"
       cx="0"
       fy="0"
       fx="0">
      <stop
         id="stop7610"
         offset="0"
         style="stop-opacity:1;stop-color:#fdb813" />
      <stop
         id="stop7612"
         offset="1"
         style="stop-opacity:1;stop-color:#ac3113" />
    </radialGradient>
    <inkscape:perspective
       id="perspective10680"
       inkscape:persp3d-origin="0.5 : 0.33333333 : 1"
       inkscape:vp_z="1 : 0.5 : 1"
       inkscape:vp_y="0 : 1000 : 0"
       inkscape:vp_x="0 : 0.5 : 1"
       sodipodi:type="inkscape:persp3d" />
    <radialGradient
       id="radialGradient7488"
       spreadMethod="pad"
       gradientTransform="matrix(149.89799,0,0,150.992,277.035,489.13699)"
       gradientUnits="userSpaceOnUse"
       r="1"
       cy="0"
       cx="0"
       fy="0"
       fx="0">
      <stop
         id="stop7490"
         offset="0"
         style="stop-opacity:1;stop-color:#fdb813" />
      <stop
         id="stop7492"
         offset="1"
         style="stop-opacity:1;stop-color:#ac3113" />
    </radialGradient>
    <linearGradient
       inkscape:collect="always"
       xlink:href="#linearGradient10729"
       id="linearGradient10735"
       x1="565.68542"
       y1="268.4838"
       x2="751.98303"
       y2="269.9838"
       gradientUnits="userSpaceOnUse" />
    <linearGradient
       inkscape:collect="always"
       xlink:href="#linearGradient10759"
       id="linearGradient10757"
       x1="836.65887"
       y1="511.17294"
       x2="930.70544"
       y2="446.29608"
       gradientUnits="userSpaceOnUse" />
    <linearGradient
       inkscape:collect="always"
       xlink:href="#linearGradient10759"
       id="linearGradient10789"
       x1="498.82962"
       y1="890.37024"
       x2="442.74298"
       y2="967.65448"
       gradientUnits="userSpaceOnUse" />
    <linearGradient
       inkscape:collect="always"
       xlink:href="#linearGradient10793"
       id="linearGradient10791"
       x1="866.42767"
       y1="776.84308"
       x2="982.39185"
       y2="836.36377"
       gradientUnits="userSpaceOnUse" />
    <linearGradient
       inkscape:collect="always"
       xlink:href="#linearGradient10819"
       id="linearGradient10817"
       x1="789.28278"
       y1="862.77344"
       x2="881.10559"
       y2="955.13495"
       gradientUnits="userSpaceOnUse" />
    <radialGradient
       inkscape:collect="always"
       xlink:href="#radialGradient7680"
       id="radialGradient10860"
       gradientUnits="userSpaceOnUse"
       gradientTransform="matrix(221.73625,0,0,-223.35499,577.78925,580.70054)"
       spreadMethod="pad"
       cx="4.0766002e-16"
       cy="5.8763758e-17"
       fx="4.0766002e-16"
       fy="5.8763758e-17"
       r="1" />
    <linearGradient
       inkscape:collect="always"
       xlink:href="#linearGradient10729"
       id="linearGradient10862"
       gradientUnits="userSpaceOnUse"
       x1="565.68542"
       y1="268.4838"
       x2="751.98303"
       y2="269.9838" />
    <linearGradient
       inkscape:collect="always"
       xlink:href="#linearGradient10759"
       id="linearGradient10864"
       gradientUnits="userSpaceOnUse"
       x1="836.65887"
       y1="511.17294"
       x2="930.70544"
       y2="446.29608" />
    <radialGradient
       inkscape:collect="always"
       xlink:href="#radialGradient7656"
       id="radialGradient10866"
       gradientUnits="userSpaceOnUse"
       gradientTransform="matrix(260.75549,0,0,-262.65922,577.64933,580.62801)"
       spreadMethod="pad"
       cx="-5.2627173e-16"
       cy="5.0111824e-16"
       fx="-5.2627173e-16"
       fy="5.0111824e-16"
       r="1" />
    <radialGradient
       inkscape:collect="always"
       xlink:href="#radialGradient7632"
       id="radialGradient10868"
       gradientUnits="userSpaceOnUse"
       gradientTransform="matrix(306.77416,0,0,-309.01379,577.71892,580.59279)"
       spreadMethod="pad"
       cx="9.486769e-17"
       cy="-5.2909066e-17"
       fx="9.486769e-17"
       fy="-5.2909066e-17"
       r="1" />
    <linearGradient
       inkscape:collect="always"
       xlink:href="#linearGradient10793"
       id="linearGradient10870"
       gradientUnits="userSpaceOnUse"
       x1="866.42767"
       y1="776.84308"
       x2="982.39185"
       y2="836.36377" />
    <linearGradient
       inkscape:collect="always"
       xlink:href="#linearGradient10819"
       id="linearGradient10872"
       gradientUnits="userSpaceOnUse"
       x1="789.28278"
       y1="862.77344"
       x2="881.10559"
       y2="955.13495" />
    <linearGradient
       inkscape:collect="always"
       xlink:href="#linearGradient10759"
       id="linearGradient10874"
       gradientUnits="userSpaceOnUse"
       x1="498.82962"
       y1="890.37024"
       x2="442.74298"
       y2="967.65448" />
  </defs>
  <sodipodi:namedview
     id="base"
     pagecolor="#ffffff"
     bordercolor="#666666"
     borderopacity="1.0"
     inkscape:pageopacity="0.0"
     inkscape:pageshadow="2"
     inkscape:zoom="1.979899"
     inkscape:cx="181.30135"
     inkscape:cy="156.9919"
     inkscape:document-units="px"
     inkscape:current-layer="layer1"
     showgrid="false"
     inkscape:window-width="1920"
     inkscape:window-height="1000"
     inkscape:window-x="-8"
     inkscape:window-y="-8"
     inkscape:window-maximized="1" />
  <metadata
     id="metadata10241">
    <rdf:RDF>
      <cc:Work
         rdf:about="">
        <dc:format>image/svg+xml</dc:format>
        <dc:type
           rdf:resource="http://purl.org/dc/dcmitype/StillImage" />
        <dc:title></dc:title>
      </cc:Work>
    </rdf:RDF>
  </metadata>
  <g
     inkscape:label="Layer 1"
     inkscape:groupmode="layer"
     id="layer1"
     transform="translate(-311.4909,-992.77575)">
    <g
       id="g10843"
       transform="matrix(0.28128911,0,0,0.28128911,224.40761,929.42283)">
      <path
         d="m 598.79566,324.17985 c -30.70084,4.77324 -36.95784,25.02174 -38.19168,31.7722 -24.61247,-1.81174 -43.87379,1.39946 -66.01532,10.69912 -20.32979,8.478 -33.33715,21.81344 -38.93193,39.59114 -7.82183,25.19012 0,58.11497 21.97592,92.76737 l 1.23406,0.74038 1.31816,-0.82168 c 9.71184,-19.7549 26.66786,-23.79068 39.09755,-23.79068 30.95052,0 66.92095,24.61236 83.79288,57.20913 16.95881,33.08745 15.88756,50.86803 12.76045,77.12662 -5.02293,40.99057 -49.22469,86.67309 -104.86596,86.67309 -35.31148,0 -69.80117,-18.68356 -98.11538,-54.07923 C 352.84639,566.91792 376.96503,484.76838 389.7227,452.99618 l -0.40928,-1.72754 -1.73044,-0.0813 c -6.41959,4.27964 -12.51098,10.04004 -18.27418,17.28409 -12.59226,18.84905 -21.64794,38.76945 -26.99604,59.01796 -14.24143,53.58564 -8.06875,132.35851 52.18316,192.77591 37.78241,38.02907 85.68895,58.93376 134.91062,58.93376 81.73728,0 165.77707,-59.01796 168.32906,-171.61865 2.13995,-91.20244 -48.48141,-138.778 -91.20243,-162.64996 -20.3298,-11.3582 -39.59112,-13.74772 -52.10188,-13.74772 -16.29983,0 -28.15161,3.78897 -33.42145,6.83467 -4.77324,-11.52371 -4.60763,-21.81345 0.49659,-29.79788 10.86463,-16.95601 43.78949,-21.81344 92.02399,-13.25124 l 1.48076,-0.65909 0.0813,-1.56493 c -1.80871,-2.9644 -3.45507,-7.40665 -1.06846,-11.6892 2.30531,-4.11415 10.28974,-11.11141 38.02909,-11.11141 0,0 12.67635,-0.16539 19.83621,0.41229 22.14152,1.56494 45.84812,6.50077 50.37444,7.81892 -7.24392,8.64351 -34.15869,48.31883 11.6892,112.85039 21.07308,29.79786 50.45574,56.87812 84.94566,78.36057 39.0976,25.43402 81.15938,40.08762 115.40237,40.08762 l 0.0817,0 c 25.92756,0 45.76687,-8.23122 57.37167,-23.70648 12.42964,-16.46243 8.15005,-36.13605 2.96452,-51.44581 -9.38385,-26.66798 -33.50274,-63.05081 -52.67969,-79.51325 l -1.8931,0 -0.33097,1.89304 c 16.13422,27.16155 20.90741,52.0207 12.26404,63.21631 -6.7475,8.80609 -19.17717,13.66352 -34.7338,13.66352 -18.10853,0 -38.93495,-6.25687 -58.6055,-17.69638 -6.09147,-3.53928 -12.76076,-8.14993 -18.2742,-12.59506 -43.38021,-35.23019 -75.31488,-88.07256 -52.43309,-120.99741 7.15985,-10.20844 22.9661,-17.44959 42.30873,-19.50811 l 1.31537,-1.23688 -0.8218,-1.64624 c -7.73752,-3.62054 -28.31702,-13.08572 -28.31702,-13.08572 -0.24691,-0.16537 -26.58679,-13.33544 -76.30205,-22.88481 -17.53391,-3.37378 -37.61679,-5.10132 -59.51165,-5.10132 -22.14152,0 -45.68251,1.80884 -67.90812,5.35102"
         style="fill:url(#radialGradient10860);stroke:none"
         id="path7686" />
      <g
         style="fill:#ed1c24;fill-opacity:1"
         transform="matrix(2.323643,0,0,2.323643,2059.4965,-162.19246)"
         id="g10707">
        <path
           id="path7720"
           style="fill:#ed1c24;fill-opacity:1;fill-rule:nonzero;stroke:none"
           d="m -629.525,564.66191 c 0,0 -20.2625,45.695 -22.0425,49.84875 -2.6575,6.1775 -1.61375,12.11125 -1.61375,12.11125 l 45.96625,0 0,-10.81625 -22.9875,0 c 0,0 18.91625,-43.85125 21.00625,-48.36875 3.18625,-6.91375 1.59125,-12.5675 1.59125,-12.5675 l -40.54,0 c -2.68125,0.52 -5.285,2.10625 -5.285,6.315 l 0,3.4775 23.905,0" />
        <path
           id="path7722"
           style="fill:#ed1c24;fill-opacity:1;fill-rule:nonzero;stroke:none"
           d="m -678.83875,590.04691 c 0,1.59875 -2.46375,2.91 -5.5075,2.91 -3.04375,0 -5.525,-1.31125 -5.525,-2.91 l 0,-28.26 c 0,0 11.0325,-2.42125 11.0325,6.245 l 0,22.015 z m -11.00875,36.575 0,-24.755 c 1.7675,0.35875 3.6025,0.6225 5.50125,0.7675 14.31625,1.13 25.8025,-5.70125 25.8025,-13.23375 l 0,-23.42 c 0,-7.52 -11.5575,-13.62375 -25.8025,-13.62375 -14.2625,0 -25.81125,6.10375 -25.81125,13.62375 l 0,55.46375 c 0.54,3.985 3.78,4.96125 6.61125,5.1775 l 13.69875,0" />
        <path
           id="path7724"
           style="fill:#ed1c24;fill-opacity:1;fill-rule:nonzero;stroke:none"
           d="m -569.54125,590.04691 c 0,1.59875 -2.4725,2.91 -5.5125,2.91 -3.0475,0 -5.52,-1.31125 -5.52,-2.91 l 0,-28.26 c 0,0 11.0325,-2.42125 11.0325,6.245 l 0,22.015 z m -11.0125,36.575 0,-24.755 c 1.76,0.35875 3.6025,0.6225 5.5,0.7675 14.32125,1.13 25.80625,-5.70125 25.80625,-13.23375 l 0,-23.42 c 0,-7.52 -11.56375,-13.62375 -25.80625,-13.62375 -14.26125,0 -25.80625,6.10375 -25.80625,13.62375 l 0,55.46375 c 0.53625,3.985 3.78375,4.96125 6.59875,5.1775 l 13.7075,0" />
        <path
           id="path7726"
           style="fill:#ed1c24;fill-opacity:1;fill-rule:nonzero;stroke:none"
           d="m -489.8425,626.65316 0,-72.375 -4.91375,0 c -3.07875,0.1775 -6.72875,1.505 -6.875,6.35125 l 0,43.97375 -1.01625,-3.27125 -15.5125,-42.17125 c -1.02375,-2.535 -4.13875,-4.7325 -6.8875,-4.7325 l -16.0575,0 0,65.87375 c 0.1575,4.83125 3.80875,6.175 6.87125,6.35125 l 4.94125,0 0,-49.4 0.50125,2.025 16.375,42.66625 c 1.0325,2.56375 4.1225,4.615 6.87875,4.615 l 15.695,0.0937" />
      </g>
      <path
         d="m 625.01453,265.61279 -53.42613,-26.29871 19.12701,73.37639 c 16.98379,-3.79227 37.01839,-6.34856 58.78603,-7.00581 l 13.68591,-15.33777 14.6747,15.4192 c 21.60198,0.82301 41.4707,3.46364 58.20741,7.33734 l 15.91358,-73.78935 -51.61444,26.29871 -38.99596,-38.74864 -36.35811,38.74864"
         style="fill:url(#linearGradient10862);fill-opacity:1;stroke:none"
         id="path7470" />
      <path
         d="m 837.67234,488.3054 c 36.59624,32.54867 85.17155,29.49195 98.63673,-0.74305 6.02905,-12.06078 -6.27941,-47.33689 -41.38651,-47.83226 -20.98337,1.48611 -45.68469,23.62619 -57.25022,48.57531"
         style="fill:url(#linearGradient10864);fill-opacity:1;stroke:none"
         id="path7542" />
      <path
         d="m 312.31541,783.14556 -0.82451,2.38642 0.98708,1.06838 c 35.88642,10.61706 86.66898,41.23687 132.42902,79.83766 56.05174,47.24367 94.15897,97.61399 92.67835,122.55237 -0.24968,5.18509 -2.30513,9.05213 -6.09089,11.52261 -12.51274,8.2307 -44.03555,0.3282 -83.04557,-20.82443 l -1.97718,0.49355 0.41225,2.05824 c 23.9513,17.69505 43.78588,30.37034 73.99064,42.38954 14.15896,5.1008 30.04218,7.7341 46.00972,7.7341 25.67881,0 46.9155,-6.8313 56.70808,-18.2699 7.73687,-9.1362 10.61683,-20.99002 8.56138,-35.14596 -6.09089,-41.15257 -53.49994,-95.55551 -120.82486,-138.76656 -59.17858,-37.94164 -122.88311,-60.6592 -170.28937,-60.6592 -10.78245,0 -20.41221,1.23397 -28.72414,3.62318"
         style="fill:url(#radialGradient10866);stroke:none"
         id="path7662" />
      <path
         d="m 757.68978,763.88383 c -35.46184,42.70631 -58.58558,91.41773 -65.08401,137.33121 -6.50142,46.16017 4.52478,83.92946 31.10241,106.31006 10.86087,9.2181 23.94502,15.3887 38.91852,18.4333 3.95031,0.5747 8.06595,0.9056 12.17859,0.9056 l 0.0836,0 c 20.73493,0 40.15217,-7.8192 53.07098,-13.743 19.17343,-9.7928 37.27574,-23.69833 39.98963,-28.30449 l -0.0812,-1.72985 -1.64579,-0.40923 c -13.74008,5.5117 -26.82421,8.30965 -38.75599,8.30965 -14.56437,0 -26.82421,-4.11564 -36.28613,-12.0973 -34.80588,-29.37547 -21.97136,-102.77203 28.63533,-163.57785 34.96845,-42.13163 81.54078,-69.36509 118.48866,-69.36509 14.56437,0 26.82423,4.11275 36.3674,12.17858 16.29414,13.7401 22.63003,37.84764 17.93984,67.71651 l 0.90551,1.64858 1.8083,-0.57758 c 8.31257,-13.16542 13.65877,-24.02629 19.58557,-46.90032 5.1838,-21.55921 5.3462,-38.50939 0.6558,-54.8036 -4.0315,-14.15224 -12.7531,-26.90549 -25.75312,-37.93182 -15.88213,-13.4121 -36.94493,-20.48822 -60.80867,-20.48822 -55.87171,0 -121.44913,37.19169 -171.31583,97.09486"
         style="fill:url(#radialGradient10868);stroke:none"
         id="path7638" />
      <path
         d="m 875.60375,781.56213 c -14.97066,14.72406 -11.10312,39.89275 7.8133,53.62747 13.07901,9.4611 26.65125,14.55868 42.5241,14.55868 52.64103,0 59.46789,-51.81706 55.51911,-64.07212 -9.12746,5.75616 -18.83519,8.96499 -28.95187,8.88376 -18.91641,-0.084 -36.84941,-10.94077 -51.73582,-29.44808 -6.00567,2.63146 -17.2715,8.22516 -25.16882,16.45029"
         style="fill:url(#linearGradient10870);fill-opacity:1;stroke:none"
         id="path7518" />
      <path
         d="m 799.94786,630.59495 c 0.0834,5.91131 0,19.29504 1.39601,26.68348 2.05335,26.76746 22.33314,33.8286 36.9508,26.1129 8.78432,-5.09167 17.65275,-9.52589 26.52117,-13.30263 -1.396,-10.18045 -2.29965,-20.85616 -2.38075,-31.77805 -0.0834,-27.25983 -12.48299,-39.49374 -28.00127,-47.12835 -7.38831,-3.61456 -14.61466,-7.96478 -21.75968,-12.56408 -2.54294,-1.4771 -4.92369,-3.1193 -7.38854,-4.5993 -3.77675,20.60997 -5.58404,33.58242 -5.33774,56.57603"
         style="fill:#fdb813;fill-opacity:1;stroke:none"
         id="path7566" />
      <path
         d="m 792.1935,881.14193 c -8.23717,24.87679 2.05988,40.28169 17.71186,50.16326 18.77806,11.86311 30.55993,24.38285 30.47555,38.79698 0,3.29483 -0.74078,6.67391 -1.97573,9.88447 12.35414,-1.81011 50.65731,-13.67322 55.51808,-42.99541 4.61112,-27.92465 -32.45431,-56.09627 -93.40844,-74.2178 -3.13211,6.17997 -5.93021,12.35704 -8.32132,18.3685"
         style="fill:url(#linearGradient10872);fill-opacity:1;stroke:none"
         id="path7590" />
      <path
         d="m 551.2471,853.53348 c 7.73499,6.25466 15.05761,12.50931 21.88706,18.9265 11.19163,10.36735 32.58505,27.4015 53.81315,29.37512 13.33081,1.15225 46.49054,6.99477 62.12282,-30.28066 2.55132,-8.30955 5.51455,-16.62201 8.9684,-24.93158 -11.60075,-0.90555 -23.5326,-1.56439 -35.62676,-1.89236 -4.36241,-0.0813 -8.72181,-0.0813 -13.08399,-0.0813 -35.21763,0 -68.45886,3.20714 -98.08068,8.88425"
         style="fill:#fdb813;fill-opacity:1;stroke:none"
         id="path7614" />
      <path
         d="m 477.52709,979.36784 c 15.98689,3.62756 31.06689,-17.22226 13.26901,-49.93725 -13.67898,-25.2157 -28.26484,-33.62189 -35.27001,-39.06035 -57.68349,40.62707 -27.5235,77.79224 22.001,88.9976"
         style="fill:url(#linearGradient10874);fill-opacity:1;stroke:none"
         id="path7494" />
    </g>
  </g>
</svg>
